/* XPM */
static char *_44938c708e44f53f6883af1797bc200gJZVN1NZ4AKefLgb[] = {
/* columns rows colors chars-per-pixel */
"64 64 243 2 ",
"   c #040511",
".  c #0E1332",
"X  c #121F4B",
"o  c #111D46",
"O  c #0F1A40",
"+  c #13204D",
"@  c #162353",
"#  c #1A275C",
"$  c #1B285E",
"%  c #182456",
"&  c #242656",
"*  c #1C2A63",
"=  c #1E2E6A",
"-  c #212F6B",
";  c #272C64",
":  c #23306E",
">  c #29326D",
",  c #253474",
"<  c #293576",
"1  c #26367A",
"2  c #29377A",
"3  c #2A387D",
"4  c #27397D",
"5  c #363979",
"6  c #3A4B7C",
"7  c #2D3D85",
"8  c #2F3E88",
"9  c #263B81",
"0  c #313F89",
"q  c #323D85",
"w  c #353298",
"e  c #252EAA",
"r  c #2F38AD",
"t  c #2831AD",
"y  c #3438AA",
"u  c #3535B6",
"i  c #2B3ABC",
"p  c #473FAC",
"a  c #413F89",
"s  c #32418D",
"d  c #38438E",
"f  c #364593",
"g  c #394594",
"h  c #374899",
"j  c #3B4A9C",
"k  c #384798",
"l  c #2F4390",
"z  c #3D4DA1",
"x  c #364CA1",
"c  c #3D51AA",
"v  c #335EB0",
"b  c #414A99",
"n  c #4C4E92",
"m  c #434EA3",
"M  c #4B41AD",
"N  c #4453AB",
"B  c #4A54AD",
"V  c #4555A9",
"C  c #4B44B6",
"Z  c #534ABD",
"A  c #5949B8",
"S  c #4556B1",
"D  c #4A56B1",
"F  c #4C59B5",
"G  c #4E5DBC",
"H  c #415CBC",
"J  c #515DBC",
"K  c #565CB3",
"L  c #535AAB",
"P  c #5862BA",
"I  c #5962AD",
"U  c #6569B9",
"Y  c #6266A5",
"T  c #303DC2",
"R  c #3147D1",
"E  c #305AEA",
"W  c #277AF9",
"Q  c #4F5FC0",
"!  c #5D51C5",
"~  c #515FC1",
"^  c #5857D3",
"/  c #5053CE",
"(  c #6456CA",
")  c #6B59CE",
"_  c #6854C7",
"`  c #715ACE",
"'  c #655DD5",
"]  c #6E5CD2",
"[  c #625CD7",
"{  c #735ED5",
"}  c #604FC0",
"|  c #4965C9",
" . c #5461C4",
".. c #5964C5",
"X. c #5565CB",
"o. c #5B66CB",
"O. c #5C69CD",
"+. c #5E6BD4",
"@. c #586CD8",
"#. c #5070D4",
"$. c #636ACB",
"%. c #736AC8",
"&. c #6A74C9",
"*. c #7578CB",
"=. c #626BD3",
"-. c #626EDA",
";. c #696CD8",
":. c #7562DC",
">. c #7964DD",
",. c #7566D6",
"<. c #6C72DE",
"1. c #6774D9",
"2. c #777AD9",
"3. c #515CF1",
"4. c #675BF5",
"5. c #5271F1",
"6. c #7B66E1",
"7. c #7E69E5",
"8. c #7168E5",
"9. c #6472E1",
"0. c #6B75E5",
"q. c #6B77E9",
"w. c #6D79EC",
"e. c #737BED",
"r. c #7A7CEC",
"t. c #7679E5",
"y. c #6C7AF5",
"u. c #737EF3",
"i. c #777BF7",
"p. c #676CF3",
"a. c #8278D8",
"s. c #816DEC",
"d. c #816AE5",
"f. c #8676E9",
"g. c #8573F4",
"h. c #8974F5",
"j. c #8B7AF4",
"k. c #8677F8",
"l. c #8779FD",
"z. c #8A7AFD",
"x. c #8977F8",
"c. c #917DFD",
"v. c #917DF2",
"b. c #9278EC",
"n. c #3D8DFF",
"m. c #7688D8",
"M. c #5190FB",
"N. c #7D83EB",
"B. c #7884E9",
"V. c #7A82F5",
"C. c #7681F9",
"Z. c #7B85FB",
"A. c #7988FA",
"S. c #6E92FE",
"D. c #56ADFA",
"F. c #72B0F9",
"G. c #5AEAFF",
"H. c #6DF0FE",
"J. c #66D1FF",
"K. c #878AD7",
"L. c #8383E5",
"P. c #828AED",
"I. c #8787E9",
"U. c #938AEC",
"Y. c #8383F3",
"T. c #838CF3",
"R. c #8D81FE",
"E. c #818AFC",
"W. c #8B8DFB",
"Q. c #8888F5",
"!. c #9584F3",
"~. c #938CF5",
"^. c #9B8BF5",
"/. c #9484FD",
"(. c #9A85FB",
"). c #968AFE",
"_. c #9B8CFE",
"`. c #9A86F7",
"'. c #8D94FD",
"]. c #8596FA",
"[. c #9A9CF5",
"{. c #9196FE",
"}. c #9E93FE",
"|. c #939AFE",
" X c #9C9BFD",
".X c #9795F4",
"XX c #9698E8",
"oX c #A28DFE",
"OX c #A295FE",
"+X c #A49BFE",
"@X c #A99DFE",
"#X c #A299F3",
"$X c #9CA1F6",
"%X c #9DA3FD",
"&X c #99A9FE",
"*X c #97ADF5",
"=X c #A4A4FD",
"-X c #ACA3FE",
";X c #A5AAFC",
":X c #ACABFE",
">X c #A3A4F6",
",X c #B2A4FE",
"<X c #B3ABFE",
"1X c #B9AEFF",
"2X c #AEB1FE",
"3X c #A9B8FE",
"4X c #B3B4FE",
"5X c #BBB4FE",
"6X c #B5B9FE",
"7X c #BDBBFF",
"8X c #C2BDFE",
"9X c #C1B7FE",
"0X c #AACEFF",
"qX c #BDC2FF",
"wX c #B9CAFD",
"eX c #B3DBFF",
"rX c #87FBFE",
"tX c #90F0FE",
"yX c #A7FAFF",
"uX c #B9FDFF",
"iX c #B0E7FE",
"pX c #94C7FB",
"aX c #C4C2FE",
"sX c #C9C4FF",
"dX c #C4CBFE",
"fX c #CDCCFF",
"gX c #D0CEFF",
"hX c #CCD3FF",
"jX c #C9D8FF",
"kX c #D2D2FF",
"lX c #D4DAFE",
"zX c #DADCFE",
"xX c #CBE3FF",
"cX c #DBE3FE",
"vX c #D6E8FE",
"bX c #C9FAFE",
"nX c #DCFCFF",
"mX c #D6F8FE",
"MX c #E5EBFE",
"NX c #E5EAFF",
"BX c #ECF1FF",
"VX c #E7FAFF",
"CX c #F2F8FF",
/* pixels */
": B e.=XfXMXvXwXdX<XoXoX<XvXnXzX9X9X@X/.z.h.s.d.z._.-X8X;X}...I F.bXNXgX9X<X@X+X X@X:X7XdXjXxXbXyXH.G.M.p.4.R ' `.7X$XV * 2 j ..",
"X : N t.W.:XcXVXnXvXzXkXvXbXbXVXgX9X9XOX/.z.s.d.h.c.+X:X8X;XI 6 yXvXlXlXfX8X:X@X+X+X=X:X5XdXhXxXbXuXyXH.D.5.3.R =.).7X=XV * , k ",
"X X : m =.t.Q.=X9XlXvXnXbXbXuXbXNX9X8X8XOX/.h.d.s./.A.M.F.F.0XtX0X*X0XdXlXgX7X:X@X}. X+X;X7XdXjXlXbXbXyXrXJ.M.3.T ' _.9X$XV * : ",
"* X X : m =.e.r.r.^.5XfXVXbXbXnX8X1X9XgX1XOXc.s.j.Z.D.H.yXH.J.D.9.B.W.;X7XkXgX7X:X+X+XOX@X;X5XqXdXxXmXbXbXyXH.M.3.T [ _.7X[.V # ",
"f * + + : z =.;.<.~.=X7XhXvXcXsX1X,X,XgXsX9XoXj..XS.yXrXG.D.#.c x c -.A.=XqXkXfX7X,X@X X X@X:X5XqXdXhXvXnXbXuXyXF.3.i ^ _.5X$XV ",
"X.f * + + : m <.t.r.r.~.-X<X@XoXoXoX,XvXzXsX@X`.4XF.yXH.D.#.v x h f z X.Z.|.5XkXsX7X-X@X}.OX=X;X6X6XdXjXcXVXVXnXuXJ.5.i [ `.5X[.",
"w.X.f * + X : D e.%X;X;X.X~.@XoXc.c.,XbX7XfX,X.X6X&XuXG.M.#.| c x l 9 h  .C.%XqXgXfX7X:X@X}.OX+X:X5X6XqXhXcXBXCXCXnXyXM.R ^ ~.5X",
"|.w.X.h * X + : F u.'.|.N.<.f.,X<X8XjXmX1XkXOX2.$X2XiXrXM.@.@.X. .c l 4 f  .C.%X7XkXsX7X:X@XOX X@X;X2X6XqXhXcXNXCXCXCXnXpX@./ '.",
"2X|.w. .l # X X , F N.%X6X6XwXvXnXmXbX8X@XsX!.F G 6X6XuXD.| #.1.-.X.c 8 4 s  .u.%X7XfXfX7X-X+X}.}.=X;X:X4X7XhXcXBXCXMXvXvXxXjX3X",
"fX4X|.w. .l # X X < F V.|.6XlXCXmXlX5X(.fX@X#Xm 1 &.6XeXH.#.| +.9.9.X.c 8 4 8 Q u.%X7XkXfX9X,X@X}.OX@X-X:X4X6XhXcXBXBXlXwX3X&XS.",
"sXfX4X{.w. .7 # X + : V <.Q.=X=X+X-X@XkXaXoX-XO., 1 m.7XiXF.H #.-.w.w.@.S 0 4 s Q B.|.6XgXfX7X:X@X}. X+X;X:X:X7XhXcXBXNXwX&X|.S.",
"1XsXfX4X|.w.~ 0 # + + : m =.;.<.Y.~.;XkX,X^.,XP.c * 4 XX6XiX| c X.9.C.y.@.F 7 4 l G V.|.4XgXfX7X:X@X+X}.+X-X:X2XqXkXNXBXMXdX3XS.",
"+X1XsXsX4X{.e.J 7 % X X > B w.W.;X3XhX-X,Xv.,X;X1.s * s *XdXF.s c @.w.u.y.9.H s 4 8 Q u.|.5XfXfX7X-X@X}. X+X-X=X2XqXlXNXCXMXjX&X",
"_.+X1XsX8X+XW.<.B 3 @ X + < P T.=X;XQ.~.oXf.@X7XA.X.7 * g 0XiXv 9 c @.w.u.u.-.S l 4 8 Q V.|.6XfXfX7X:X@X}.OX+X=X=X:XaXlXMXBXBXjX",
")._.@X<X9X1X1X#XI.B ; X o + = m $.t.Q.U.2.d.OXsX Xu.G 7 * I vXm., 8 c O.w.C.w.9.G l 4 8 G w.|.6XgXfX7X<X+XOX}.+X=X-X4XaXlXMXMXBX",
"OX(._.@X9X1X9X9X,X@X*.5 X . . * b <.f.a d.d.OX7X=XE.1.c : % *.wX9 = 7 c +.w.C.i.0.G 0 4 l G V.'.:XfXfX7X;X@X}.}. X@X=X2XdXlXMXcX",
"1XoX(.oX5X<X=X4X7X-X@X@X%.& . . o ; &   a.d.oX9X;XE.;.m - % 2 wXS = , 7 N +.w.C.u.q.H f 4 7 S e.{.4XhXfX9X<X+X}.}.+X+X=X2XdXlXcX",
"1X,X(.c.<X}.<.t.+X7X,XOX-XU.n .       5 ` ` v.1X7XW.9.B < @ # >X1.l * : 8 m @.u.i.u.-.G s , l G e.|.4XfXfX7X-X@X}.}.+X X=X<XdXcX",
"1X1XOXc.@Xr.m q J U.5X<XOXOX@Xa.n & ; a.d.` h.,X8X+Xt.B < @ % XX]...8 = = 8 D +.u.C.u.q.G f 4 l  .e.|.4XfXfX7X<X+X}.}.+X+X=X4XfX",
"<X1X,Xc.OXU @ @ * g &.1X5X@X_.oXoX^.#XoXd.` g.(.5X4XQ.o., X > 7X'.V. .0 = = s N +.u.C.C.w.Q f 4 l G w.'.4XgXfX7X-X+X}.}.}. X+X4X",
"<X1X,X`.`.P b %.U V d J #X7X@X}.(.c.c.h.d.{ s.(.,X9X.X9.5 + U ;X|.'.V. .0 * : s F 9.y.C.C.q.G l 4 4 S q.{.4XfXfX7X-XOXOX}.}. X=X",
"<X1X1X(.`.U.+X:X-X-XXX*...N.:X<XoXc.c.z.s.d.g.c.OX9X=Xt.s > 6Xw.A.|.'.A. .s * 4 g S @.u.C.C.0.G l 4 9 S e.'.4XhXgX7X<XOX}.}.OX X",
"1X1X,X`.^.<XdXwXlX4XOX{.}.I.2.I.1X@X(.(.x.h.h.c._.5X4X1.> K.&.| w.A.'.'.V. .7 = , f D +.C.C.i.w.J h 4 4 S u.'.4XfXfX8X:X+X}.}.OX",
"9X,X,Xb.+XjXB.=.;XsX-X}.R.g.j.~.r..X,XoXc.c.c.c.(.1X4X&.5 XX: f  .w.E.|.|.V. .s = - 0 N -.y.Z.A.w. .h , 4 N w.'.:XfXfX9X-X+X}.}.",
"9X,XoXb.aXlXT.S o.;XaX:X_.x.6.>.!.L.L.-X@X_./.c.).,X<X$.U P = , h  .w.E.'.'.V. .f * , s F -.C.A.Z.w.Q s , 4 S q.'.4XfXfX9X:X+X}.",
"8X,Xb.#XhXaXaXT.N o.;XaX-X).x.6.,.d.}.L.[.1X@XoXOX1X-X$.m.z 4 = , h G 0.Z.|.'.V. .s = 4 g F +.C.Z.Z.q.Q l , 4 S w.'.4XhXfX8X<XOX",
"5X^.!.sX4X@X7XaXP.S ..;XsX:X).g.6.:.7..XQ.I.<X1X<X7X-X$.~.m 0 < = 1 h | q.E.'.'.V...s : , f S -.y.Z.Z.w.~ h 4 4 S w.'.2XfXfX8X-X",
"@Xb.8XaX X_.+X5XdXP.S O.;XsX-X).g.6.{ >.^..Xr.+X7X9X+X<.~.D g q , = 1 h  .q.E.'.|.Z.+.k = , s N @.u.Z.C.u.X.h , 4 N 0.'.2XfXgX8X",
"`.@XfX6X}.R.).+X7XaXN.N +.;XsX-X).g.6.] >.~.>Xt.Y.}.W.8..X&.j g 8 4 = 1 h Q q.Z.|.'.Z.+.k - 4 k F -.u.Z.Z.w.X.h 4 1 S q.].:XfXfX",
",Xt.2X8X{.R./.{.+X5XaXP.V o.;XfX-X).g.>.] { R.-Xt.0.e.t.t.#X0 g f 8 4 : 1 h  .w.E.|.|.Z.+.k = 4 k F @.C.Z.Z.w.X.j 4 4 N 0.E.=XsX",
".X;.<.qX_.z.R.R.).+X5XdXT.N ..;XaX:X).g.6.] { x.,XQ.t.t.r.@XXXb k g 8 2 = , h | q.E.|.{.Z.=.k - 4 g F -.i.Z.Z.w.X.z 4 = s o.V.=X",
"b g d XX}.l.z.z.R._.+X5XdXP.c O.;XsX,X).g.6.] :.b.-X.Xe.r.W.@X.Xm g f s 4 : , f ~ q.A.|.|.Z.+.k = 4 g F @.i.Z.Z.w.X.z 4 * 4 F t.",
"J q ; 2.{.l.z.z.z./.).+X5XdXT.c o.;XaX-X).g.6.] { g.-X Xk.Z.@X_.U.b k g q 2 = 4 h Q q.Z.'.'.Z.+.k ; , g F +.i.Z.C.w. .k < $ - m ",
"Q.~ 2 m./.z.z.z.z.z.W.).+X5XaXT.V P ;XaX,X).g.6.] { f.@X;X'.).,X^.I.b g f 7 4 * 1 f Q q.A.|.|.Z.o.3 * , f D +.u.C.C.t.~ j , * > ",
"4XQ.F K./.z.l.l.z.z.z./.~.+X5XaXP.j J >XsX-X).g.6.] { s.+X1X X=X,Xv.I.b k f 7 , * 1 g Q w.E.|.{.V...4 $ < f D O.e.i.i.0.o.m < # ",
"fX<XT.$XR.z.l.l.z.z.z.z./.).+X5XdXP.j F ;XaX:X).g.>.] { s.OX5X-X<X@X/.I.g k g q 1 * 1 g  .q.A.|.{.Y. .3 # < g B =.e.V.V.e.=.m 2 ",
"7XsX4X+Xz.z.l.l.z.l.z.z.R.R.).+X5XaXP.j J ;XsX-X).g.>.] ] 7.}.5X9X9XOXj.I.g g g 7 4 * 4 f  .w.Z.{.'.V.~ 2 $ < g D =.e.i.i.u.;.D ",
"-X1XsX<XR.z.l.l.z.l.l.l.z.R.R.{.+X4XaXP.k G >XaX-X).g.6.] ] 7.).<X8X9XoXv.I.g g g q , # 1 h  .q.E.{.{.V.~ 2 # < f D =.e.i.E.i.<.",
"OX-X5X<Xz.x.l.l.R.l.l.l.z.z.z./.).+X5XaXP.j F ;XsX-X).g.:.( ] 6./.,X8X1X(.h.L.d g g l , * , h Q q.E.|.'.V.J 2 $ < f B =.t.Z.Z.u.",
"_.OX-X-Xz.g.i.l.l.l.l.l.z.z.z.z.R.).}.1X8XT.j G >XaX-X_.g.:.( ] 6.c.@X5X,Xv.v.I.g f f 8 , * , h  .q.Z.|..XV.J 2 $ , f D -.t.i.Z.",
").OXOX+X/.h.g.g.l.l.l.l.l.l.l.z.R.R.).OX4X8XP.z F ;XaX-X).g.:.( ) 6.z.@X,X@Xh.b.f.g g g q < * , f  .w.Z.{.'.r.J 3 $ < d D =.e.i.",
"/.OX_.OX_.z.g.g.g.l.l.z.l.l.z.k.z.z.R.).OX5XaXP.m F >XaX-X).g.:.) ) 6.j.OX-X@Xh.R.2.d g g 7 , * , h  .q.E.|.{.V.J 2 $ < g D <.r.",
"}.OX_.}._./.x.g.g.k.k.k.l.l.z.k.l.l.z.z./.+X5X8XL.c G ;XsX-X).g.6.( ) >.x._.@X_.g.v.2.g g g 7 < * , h  .w.E.'.{.r.F 3 $ < g F 9.",
"OXOX).OX_._.c.g.s.g.g.k.k.k.l.k.k.k.l.z.R./.OX4XaXP.z F =XaX-X).g.6.( ) :.g.(.OX`.s.!.L.g k g 7 , * , g ~ w.E.|.W.e.F 2 # > g F ",
"@XOX_.OX_.}.(.z.g.s.g.g.k.k.k.l.l.k.k.l.l.R.).+X5XaXN.z F ;XaX-X).g.6.( ( :.g./._.c.7.v.L.0 g g 7 , # , h  .0.Z.{.'.e.B - @ - 0 ",
"@X+XOX_._._._.).z.h.s.g.g.k.k.k.l.z.k.k.l.x.R./.}.5XaXN.z F >XsX-X).g.:.( ( :.s./.(.c.d.v.2.d g f l 4 # : h G q.E.W.W.e.m ; X K ",
"@X+X+XOX_.}._._./.z.k.7.7.k.k.g.k.x.l.x.k.l.l.R./. X5X7XT.j G ;XaX-X).g.:.( ( { s.c./.j.7.v.2.d g g 7 , # , f G 0.E.{.W.<.f L Z.",
"@X@X@X@XOXOX_._.)./.z.g.7.g.g.k.k.k.x.l.k.k.z.l.R./.+X5X8XP.j J $XsX-X).x.6.( ( { s.c.c.h.6.v.2.d g s l 1 # , f J 8.V.W.V.L.y.y.",
"+X+X+X@X+XOX}.)._.(./.z.g.s.g.g.k.k.k.k.l.l.l.x.z.z.).OX1XaXN.z G >X8X-X).x.>.( ( ] s.x.c.h.{ !.2.d g g 7 < * , f D ;.P.7XZ.E p.",
"}.+X+X@X@X+XOXOX)._.(./.l.s.s.s.g.k.k.l.x.k.x.x.k.z.z./.OX1X7XN.z J $XaX-X/.k.6.( _ ] 6.h.c.s.{ U.2.0 g g 7 < * , 0 K *XfXQ.E 3.",
"OXOX}.+X@X@X@X}.OX_._.(.c.z.g.s.g.k.g.l.l.x.k.g.j.j.6.^ ^ r.-X5XN.m F $XaX-X/.g.:.( ( ] 6.g.x.d.{ ^.*.0 g f 7 < $ * *.B.dX;Xp.R ",
"}.OX}.+X X@X@X+XOXOX_.).(.c.z.s.7.s.k.g.k.g.k.;X8X@Xz.;.r t C a.1XB.z F $XaX-X).k.:.( ( ] 6.g.g.d.` ^.2.0 g g q , 5 $.G W.aX|.3.",
"@X+XOX+XOX+X@X@X+X+X_.oX)./.c.x.s.s.s.g.s.L.s O.>XaX+Xz.=.r e u ,.-XN.k F ;XsX-X(.g.:.( ( ] :.d.d.>.` `.%.0 g g s n F h G .XdX~.",
"5X,X+X+XOXOX+X@X@X+XOX_._.(./.c.h.s.s.g.|.1.h 7 O.;XaX@Xj.' r e r ) @XN.j F $XsX-X/.g.6.( ( ) :.d.d.{ ` `.&.q g s Y F f h G [.7X",
"sX1X@X}.}.OXOX+X@X+X+XOXOX)./.c.z.g.f.7XfX;X0.f 7 O.;XaX+Xz.' r e u _ #XN.g F >X8X-X).k.>.( ( ( { 6.6.{ ` ^.U q d I  .h l h X.|.",
"5X8X<X@X+XOXOX+X+X@X+X@XOXOX)./.z.h.5XlXzXfX=X1.g 7 +.2X8X+Xj.' r t r ! #Xf.j F [.8X-X).g.:.( ! ( { >.{ _ ` ~.K d I m.h l s h  .",
"'.4XsX5X,X@XOXOXOX+X@X@X@XOX_./.c.4XcXNXNXNXgX$X1.l 7 O.4X7X+Xj.' r e r ! #XL.j F $X8X-X).g.:.( ! ! { { { } ` ^.L d I.V j f l h ",
"J '.7XsX5X-X#XOX}.OX+X@X=X+XOX_.:XjXvXCXBXNXcXdX%X-.s s O.4X7X+Xx.' r e u Z #Xf.k K >XsX-X/.g.:.! ! } ` ` _ A ` ^.m U =.V h f f ",
"< ..{.5X8X<X@X}.OXOX+X+X@X@X+XoXeX0XdXcXBXzXlXlXdX X@.f s O.6X7X+Xx.' r e r ! }.t.g D $XaX@X/.g.{ ( Z Z _ ` } A ,.U.b I.S S j l ",
"@ <  .W.7XsX1X>XOXOXOXOX+X@X@X@XF.&X=X6XkXNXdXdXhXqX$X-.s 3 =.4X7XOXx.' r e u Z #Xf.g B [.sX-X).g.:.( Z A } _ A M f.a.U X.G F h ",
"; % < ~ W.7XsX5X-X+XOXOX X+X@X XM.y.R.}.:XfXlXwXqXdX7X{.+.f , o.2X9X Xj.' y e u Z ^.f.g V [.8X-X/.g.:.! / C A A M M b.%.U.Q  .F ",
"# $ % < P W.7XsX<X@XOXOXOXOX+X XW R p.z./.=XfXlX0X2XqX6X'.o., , o.:X7XOXx.' r e u ! ^.N.d B [.8X-X/.g.:.! Z C p M y M U.f.&. . .",
"o + # @ ,  .W.7X8X1X-X+XOXOXOX|.E v ^ 8.l./.@XaXhX&X*X6X;X'.P < : o.2X9X+Xx.' r t u C !.f.b B .X7X@X/.g.{ ( Z p M b w A `.f.J o.",
"# o @ @ @ < J '.8XsX5X@X+XOX_.A.R R R / 8.k./.+X8XdX%XS.&X%XE.J < : ..;X7XOXg.' r t u C U.f.b B .X7X-X/.s.{ _ p p y w w >.b.,.~ "
};
