/* XPM */
static char *result[] = {
/* columns rows colors chars-per-pixel */
"64 64 89 1 ",
"  c #203F2A",
". c #253A2F",
"X c #233C2D",
"o c #302F3A",
"O c #352A3F",
"+ c #322D3C",
"@ c #283732",
"# c #2D3237",
"$ c #2A3534",
"% c #015E0B",
"& c #045B0E",
"* c #104F1A",
"= c #154A1F",
"- c #134C1D",
"; c #0D5217",
": c #0A5514",
"> c #075811",
", c #056405",
"< c #086702",
"1 c #0B6A01",
"2 c #0E6D04",
"3 c #026108",
"4 c #117007",
"5 c #14730A",
"6 c #18770E",
"7 c #1B7A11",
"8 c #1E7D14",
"9 c #184722",
"0 c #1D4227",
"q c #1B4425",
"w c #3C2346",
"e c #3A2544",
"r c #372841",
"t c #3E2148",
"y c #411E4B",
"u c #431C4D",
"i c #510E5B",
"p c #540B5E",
"a c #481752",
"s c #4D1257",
"d c #4A1554",
"f c #461950",
"g c #4F1059",
"h c #580762",
"j c #5D0267",
"k c #5A0564",
"l c #560960",
"z c #5F0069",
"x c #61026B",
"c c #63046D",
"v c #660770",
"b c #680972",
"n c #6A0B74",
"m c #6C0D76",
"M c #6E0F78",
"N c #71127B",
"B c #73147D",
"V c #75167F",
"C c #228118",
"Z c #25841B",
"A c #29881F",
"S c #2D8C23",
"D c #319027",
"F c #35942B",
"G c #39982F",
"H c #3D9C33",
"J c #42A138",
"K c #46A53C",
"L c #4BAA41",
"P c #51B047",
"I c #57B64D",
"U c #5EBD54",
"Y c #69C85F",
"T c #771881",
"R c #791A83",
"E c #7B1C85",
"W c #7D1E87",
"Q c #7F2089",
"! c #82238C",
"~ c #84258E",
"^ c #862790",
"/ c #882992",
"( c #8A2B94",
") c #8C2D96",
"_ c #8E2F98",
"` c #90319A",
"' c #92339C",
"] c #94359E",
"[ c #9637A0",
/* pixels */
"o=,CGLUUIPJS6&XycQ[[[[[[_voCC#n[[[[[[[[[[[]Qmlt.*36ADGFS71>qowuy",
"9%7FLYILKGA4>Xyx~[[[[[[[]b@F2uW[[[[[[[[[[[^VxdO0>16CZC71>q$tdpli",
"36SKYPJGS81;@fv^[[[[[[[[[cqI-k`[[[[[[[[[)WMjdr :16CC82%=#yixmBBn",
"8DKUKFA74%=osn([[[[[[[[['l&GoV[[[[[[[[)Emjgw$9%6AGGD7,9OivR('['/",
"GLYJS84,* rpN`[[[[[[[[[[QwZ<g_[[[[[[[Qnlfr@=&5SLUIYKC>#gN)[[[[[[",
"LYKD82%=@thB`[[[[[[[[[[[v9P.N[[[[[[[Ejuo *35ALPDZ8DYZ*tn_[[[[[[[",
"LUKS63-.epM([[[[[[[[[[[/u82g][[[[[[!jw :,5ZHYG63:&4JA9gQ[[[[[[[[",
"HPPF7,-#ujR[[[[[[[[[[[[x-L@T[[[[[[]ny0%6ZGLIS4: @ >SS0k`[[[[[[[[",
"CFLPS4:.thT'[[[[[[[[[[V+S3h[[[[[[[!p@&7DJIID5;@wyrqCS.b[[[[[[[[[",
"35ZJUF4;$fxW[[[[[[[[[Ef,FoE[[[[[[[Nt-4DKIIH8%XtipaX8AoN[[[[[[[[[",
"9;35SPK8& whN^[[[[['Vs-L>l[[[[[[[`z#%ZJIYKS2=rpxci@8COT[[[[[[[[[",
"$X9;36DUH6& eixMRRVca0ZZoB[[[[[[[Qsq4DLYPG7&$sbBNh@A4yR[[[[[[[/N",
"+o$.0-%4ALKZ1*.OtfyOq4U%a~[[[[[[[Nt;8HUIJZ,0ycR!RhXG,aE[[[[[(Vzf",
"o+OO+#.9;,7FUJC2&*=;1GS=p([[[[[[`x#%ZLIJA2=ejE_`Wh9I;iW[[[)TxdOq",
".$+rwtwr# -%4AKPF855AU80i^[[[[[[Qg02FYJA4*+lR][[Qi>K kQ_)!nieX;2",
"*0$OtuuywO$q*36FUJSZDUC=aT[[[[[[Mt*8LJA2;opT[[[[Wu48+vQ^Wbso=36F",
"<:q$rtuywr#.q:1ZKPDCZKJ,+c/[[[[!k#,FPZ1*oiV[[[[[V#G%fN!Wmgo-1CHY",
"8<:0$Oer+#X0=&1ZLJC428LA-fM([[/mf97US<=+iB[[[[[[c-L kE!Tjw9<CGIJ",
"F8,;q.@. q-;&18GUS1:*>6U6XgMQQNl+%FJ2=rpV[[[[[[`s56tM~~Ng$&7GPPD",
"LD5%;--*:%<25CFIH4:X#$-7P<oicbkuq5U8*OlV[[[[[[[WoK-hQ(~nfq1SKYJC",
"UG823%3<26CZSGPKZ&Xwdar-AF;Odia#&DH%#pV][[[[[[[c:D+M)`!ce*6GILF4",
"UJA64457ZDGJJPIF2=ricvlO&L79Ot+q4I8qaN'[[[[[[[)uZ3gQ['Wk+>CKUHC%",
"ILD878ZSGJLIIYJA3XfvTWNp.6K,q@ >AK3Oc([[[[[[[[B0IXv_['Tp@,SIKS2q",
"PLFZZADHKPUYYPG7:opB('/Mu:JZ%-:4LCqsR[[[[[[[[]i18tV[[_Nd04HIF5;O",
"PPFAADGKIUYYULD4-wz![[[~j@7I812DL<ox_[[[[[[[[ToG&iQ[[^bw*8PH7&@i",
"LPGSSFJPUYYUPHZ<0fm_[[[]Nt>HJSDYC=aT[[[[[[[[[k;L0j~]`Wko3FP8%XaN",
"JIGDDGKIYUIPHS5:#lR[[[[[Qi 5JUID3oz/[[[[[[[[Rw7Z#xQ(~md05PD,0ub`",
"HUHFFJPYPPKGA5& yv/[[[[[_vr:7SA10aN[[[[[[[['z0H2OjVENl+&FH29wx^[",
"DUKHJPULHFS81> wkE[[[[[[[BdX&1,-OkQ[[[[[[[[Vu%Y,+pcvht97U7-rkQ[[",
"APIPIIKDC61&=$ykT'[[[[[[[Whr0*=$fb^[[[[[[[!k.7K3$usde02LA:opT[[[",
"8HIUPGZ6,:q$tivW'[[[[[[[[!xuo.$eim^[[[[[[~ce:FF,0o+$=1HG3@gB'[[[",
"4FKJFC1>qoypvR([[[[[[[[[[!caro+wivE)[[[)Rcuq5PD1:--%5JH1Xan)[[[[",
"1ZFDC<*.wpvR)[[[[[[[[[[[_TjuO$$OuhvVRTBblt ,SUS5<<4ALH4qtx![[[[[",
",7ZC2;@ykB/[[[[[[[[[[[[_Tza+ 9=0$rfipidw#93CKPDZCZGUG4-OlV][[[[[",
"3685%0wkV_[[[[[[[[[[['Qnie :<552,:=0  =;34ZKUJGFGKYG6:@fc![[[[[[",
",772;#sm([[[[[[[[[['EvsOq38HIIPUULGSAZZDGKIIJGGHLYJ8,9Ogm^[[[[[[",
"4C81-OkE[[[[[[[[[[Qcf@>7HID6,&:>%<48ADFGFFDSASDHPIF7%qOgv![[[[[[",
"CSZ1=wx~[[[[[[[[`Ns.3DUZ<-.rudggaue#Xq-:&3<1468SJUJC<-$yhN/[[[[[",
"GJF4=wc/[[[[[[[)vw;DJ29oaknVQ^//~EBbjife+@0=:%<5ZHUJZ1*.tpbE([['",
"UYK7*ec/[[[[[[)vO,I50ukN!`[[[[[[[[[`^Rmjifwo.q-&17DKYH8,-@wskvbx",
"DFUS&+z![[[[[_bO2P&rzW'[[[[[[[[[[[[[[`!Vbkgfw+@ ->,27SKIG81>qX.0",
"14DL4.pT][[[`Mw3P:fB'[[[[[[[[[[[[[[[[[(WNvkidye+#@X q=:328FLUKJK",
"=;2JA*yb!'](Ba;I3uR[[[[[[[[[[[[[[[[[[_~RMckpsduuufadssdauw+.9;&>",
"e#-7U4.sbTRns0D6OB[[[[[[[[[[[[['`)/~EVMvjlgddadgpjbNRQ~^^~WVnckl",
"hsO;AJ,@uipy 7G x[[[[[[[[[[`!TmbcxzklisfywewtudlcB~'[[[[[[[[[[[]",
"EMhr:DH1=..-5I>a~[[[[[[[[[QblateO+o$$@  qq0X#eakM~[[[[[[[[[[[[[[",
"[`Ejr:AIA45SU2on[[[[[[[[[Ejy#q*>&%%33,1442<&=$yjT'[[[[[[[[[[[[[[",
"[[[Qzw=5GIIG40i![[[[[[[[~je0>16CZZZASFHKLKFC<9ehR[[[[[[[[[[[[[[[",
"[[[[!cuX:<1%qtb'[[[[[[[`ny037SGJKKLLIULJHJPPC&#pR[[[[[[[[[[[[[[[",
"[[[[[Qcsr@ @elV[[[[[[[[Ri$&7DKPIUUYULGA866ZJJ2 dN][[[[[[[[[[[[[[",
"[[[[[_TcguwtdzR'[[[[[[^xw=2SJIUYYUIKFC5,%%1AU8-tv^[[[[[[[[['/WVm",
"[[[[[`EnksafskM~[[[[[/ma.%8HPUYYUILGZ43;==>5KD&OkV)[[[['~Tnzpdye",
"[[[[[~BxpdytydhvV!/~Rca@>7FPUIIIPKFZ5%-X@.=,FH3@dcVWQEMxiyO@0=*:",
"[[[[!Mjgueo@@$+efgpifO038HUPKJJHGS82&9$Oe+ &AL2 tijxjiu+X-&<467Z",
"[[[Wcgt+@0-:3,,%&;;;&1CJYJDAZZCC743*XOussu#:CI5=otfuw#0:,5CSFHKI",
"[[Qzuoq*>,4CFKUYYYUYYLGZ61,3333%>- oupzczir=8I6:Xoo$ *35ZFJLPIYL",
"[/ctX;347AHUHC4%>::::;-9  X.XXX.#eflvNRENjt97U8&=00=>17SHLIUYILF",
"[Bd.>4CSGPPS2*$wdgigdaadddaafafspjnT~_')Wvy9CI83*-;%28SJPUYUILHZ",
"/zO;4AGJIPD2=rlME^^~WTBMmbvcccbmVW(][[[[~vt;SL73:>32CFKPYUIPLHA4",
"TgX,CHLIIJC&#lT'[[[[[['(!WRVVRE~)[[[[[[[Qk#<LD1&>&17DKUUPKKHFZ4>",
"ny94DLIUPF4-ym'[[[[[[[[[`/!WW!/`[[[[[[[_Nu*DJ4:--&2ZGIPJGFDA82> ",
"jr*6GPUUKS<XgW[[[[[[[[[['/WEEQ/`[[[[[[`VsqCK1=.@0;1CJYKFA874,: w",
"io:7HIYIJC%oz_[[[[[[[[[[)WBmmNR~_[[[]~ma9ZG&$tft+q%7HYJS74<>=.wl",
"a@&7HIULF6*wM[[[[[[[[[['WnzlphznBTEVnp+&JCqyhvckf$*4DUJA5,>9$tlM"
};
