/* XPM */
static char *_efeada3475e4c75b4384e5fe43752f5IPQDb1eCTiBBhib3[] = {
/* columns rows colors chars-per-pixel */
"64 64 254 2 ",
"   c black",
".  c #010101",
"X  c #020202",
"o  c gray1",
"O  c #040404",
"+  c gray2",
"@  c #060606",
"#  c #070707",
"$  c gray3",
"%  c #090909",
"&  c gray4",
"*  c #0B0B0B",
"=  c #0C0C0C",
"-  c gray5",
";  c #0E0E0E",
":  c gray6",
">  c #101010",
",  c #111111",
"<  c gray7",
"1  c #131313",
"2  c gray8",
"3  c #151515",
"4  c #161616",
"5  c gray9",
"6  c #181818",
"7  c #191919",
"8  c gray10",
"9  c #1B1B1B",
"0  c gray11",
"q  c #1D1D1D",
"w  c #1E1E1E",
"e  c gray12",
"r  c #202020",
"t  c gray13",
"y  c #222222",
"u  c #232323",
"i  c gray14",
"p  c #252525",
"a  c gray15",
"s  c #272727",
"d  c #282828",
"f  c gray16",
"g  c #2A2A2A",
"h  c gray17",
"j  c #2C2C2C",
"k  c #2D2D2D",
"l  c gray18",
"z  c #2F2F2F",
"x  c gray19",
"c  c #313131",
"v  c #323232",
"b  c gray20",
"n  c #343434",
"m  c #353535",
"M  c gray21",
"N  c #373737",
"B  c gray22",
"V  c #393939",
"C  c #3A3A3A",
"Z  c gray23",
"A  c #3C3C3C",
"S  c gray24",
"D  c #3E3E3E",
"F  c #3F3F3F",
"G  c gray25",
"H  c #414141",
"J  c gray26",
"K  c #434343",
"L  c #444444",
"P  c gray27",
"I  c #464646",
"U  c gray28",
"Y  c #484848",
"T  c #494949",
"R  c gray29",
"E  c #4B4B4B",
"W  c #4C4C4C",
"Q  c gray30",
"!  c #4E4E4E",
"~  c gray31",
"^  c #505050",
"/  c #515151",
"(  c gray32",
")  c #535353",
"_  c gray33",
"`  c #555555",
"'  c #565656",
"]  c gray34",
"[  c #585858",
"{  c gray35",
"}  c #5A5A5A",
"|  c #5B5B5B",
" . c gray36",
".. c #5D5D5D",
"X. c gray37",
"o. c #5F5F5F",
"O. c #606060",
"+. c gray38",
"@. c #626262",
"#. c gray39",
"$. c #646464",
"%. c #656565",
"&. c gray40",
"*. c #676767",
"=. c #686868",
"-. c DimGray",
";. c #6A6A6A",
":. c gray42",
">. c #6C6C6C",
",. c #6D6D6D",
"<. c gray43",
"1. c #6F6F6F",
"2. c gray44",
"3. c #717171",
"4. c #727272",
"5. c gray45",
"6. c #747474",
"7. c gray46",
"8. c #767676",
"9. c #777777",
"0. c gray47",
"q. c #797979",
"w. c gray48",
"e. c #7B7B7B",
"r. c #7C7C7C",
"t. c gray49",
"y. c #7E7E7E",
"u. c gray50",
"i. c #808080",
"p. c #818181",
"a. c gray51",
"s. c #838383",
"d. c #848484",
"f. c gray52",
"g. c #868686",
"h. c gray53",
"j. c #888888",
"k. c #898989",
"l. c gray54",
"z. c #8B8B8B",
"x. c gray55",
"c. c #8D8D8D",
"v. c #8E8E8E",
"b. c gray56",
"n. c #909090",
"m. c gray57",
"M. c #929292",
"N. c #939393",
"B. c gray58",
"V. c #959595",
"C. c gray59",
"Z. c #979797",
"A. c #989898",
"S. c gray60",
"D. c #9A9A9A",
"F. c #9B9B9B",
"G. c gray61",
"H. c #9D9D9D",
"J. c gray62",
"K. c #9F9F9F",
"L. c #A0A0A0",
"P. c gray63",
"I. c #A2A2A2",
"U. c gray64",
"Y. c #A4A4A4",
"T. c #A5A5A5",
"R. c gray65",
"E. c #A7A7A7",
"W. c gray66",
"Q. c #A9A9A9",
"!. c #AAAAAA",
"~. c gray67",
"^. c #ACACAC",
"/. c gray68",
"(. c #AEAEAE",
"). c #AFAFAF",
"_. c gray69",
"`. c #B1B1B1",
"'. c #B2B2B2",
"]. c gray70",
"[. c #B4B4B4",
"{. c gray71",
"}. c #B6B6B6",
"|. c #B7B7B7",
" X c gray72",
".X c #B9B9B9",
"XX c gray73",
"oX c #BBBBBB",
"OX c #BCBCBC",
"+X c gray74",
"@X c gray",
"#X c gray75",
"$X c #C0C0C0",
"%X c #C1C1C1",
"&X c gray76",
"*X c #C3C3C3",
"=X c gray77",
"-X c #C5C5C5",
";X c #C6C6C6",
":X c gray78",
">X c #C8C8C8",
",X c gray79",
"<X c #CACACA",
"1X c #CBCBCB",
"2X c gray80",
"3X c #CDCDCD",
"4X c #CECECE",
"5X c gray81",
"6X c #D0D0D0",
"7X c gray82",
"8X c #D2D2D2",
"9X c LightGray",
"0X c gray83",
"qX c #D5D5D5",
"wX c gray84",
"eX c #D7D7D7",
"rX c #D8D8D8",
"tX c gray85",
"yX c #DADADA",
"uX c gray86",
"iX c gainsboro",
"pX c #DDDDDD",
"aX c gray87",
"sX c #DFDFDF",
"dX c gray88",
"fX c #E1E1E1",
"gX c #E2E2E2",
"hX c gray89",
"jX c #E4E4E4",
"kX c gray90",
"lX c #E6E6E6",
"zX c #E7E7E7",
"xX c gray91",
"cX c #E9E9E9",
"vX c #EAEAEA",
"bX c gray92",
"nX c #ECECEC",
"mX c gray93",
"MX c #EEEEEE",
"NX c #EFEFEF",
"BX c gray94",
"VX c #F1F1F1",
"CX c gray95",
"ZX c #F3F3F3",
"AX c #F4F4F4",
"SX c gray96",
"DX c #F6F6F6",
"FX c gray97",
"GX c #F8F8F8",
"HX c #F9F9F9",
"JX c #FBFBFB",
"KX c gray99",
"LX c #FEFEFE",
"PX c white",
/* pixels */
": < 5 0 0 a a a a a < o & < & # o # : a n P P T ~ T | t.).6XB.9 :.hXi.y & 0 & o o & : 5 9 9 0 y 0 0 9 < : & # & 0 ] G.%X>Xb.K o.",
"& : : 5 5 5 9 9 9 0 9 < < # o o o : 0 n A P P P T ~ ( :.S.OX).j o.hX:.o K j < : 9 a a a a y 0 0 9 5 < : : < 9 K i.=XGXmX>XS.P i.",
"a d a a a y 0 9 5 5 < : & & # : 5 a c K P P T T T T ~ o.g.).%X] A hX5.< | P j d n B A A B n n c j d y a d K 9.OXGXPXyX>X.Xq.o yX",
"A K A A B B n c j d a y y y a d c A P T ~ T T ~ ~ ~ T ( >.S.}.S.& 6Xg.& :.o.P B K P P P P P P P K A A P @.n.qXPXZXyX.XE.g.0 E.PX",
"~ T P P P P P K K A A n B A K K P ~ T T T T ~ T T ~ T ~ @.i.W.}.j n.OXo 9.>.( K K T P T T P P P P P ~ o.b.6XPXPX>XB.9.] c =XPX5X",
"| T T P T P P P K P P P T ~ T ~ ( ( ( ~ ~ ~ T T T T T T ] 5.B.).9.T kXj q.q.@.T P T P P P P P P T ~ | 9.'.AXPX>XS.T y =XmX6XS.&.",
":.( T T P P P P P ~ T ~ ( ] o.&.:.&.o.] ( ~ T ~ ~ ~ ~ T ~ o.i.U.W.5 5X5.] t.>.| T T T P ~ T ~ ~ ~ ( &.n.6XPXPXW.B j.pXOXt.P < < ",
"9.| ~ ~ T ~ ~ T ~ ~ ~ ( o.>.i.n.B.b.i.5.@.] ~ ~ T ( ~ P ~ ( 5.n.E.&.9.}.a i.q.@.( T T T ~ T T T T ( >.W.xXPX>XA E.%X@.5 : : & # ",
"q.| T T T T T T T ~ ~ o.9.B..X5XqX5X.XU.t.:.| ( ~ T ~ T T ~ @.i.S.G.< pXj t.i.:.] T ~ T T ~ ~ ~ ~ | i.OXZXPXg.q.'.j & & & o o o ",
"5.] T T T T T ~ ~ ~ | >.B.>XZXmXyXmXAXyX}.b.>.| ~ ~ T T T T ( >.b.G.:.g.g.&.g.q.o.~ T T T T ~ ~ ( @.b.>XZXZX# %XK : & o o o # : ",
"o.P K P P T ~ ~ ~ ( @.g.OXAXmX>X.X.X>XPXhXOXn.>.] ~ T ~ ~ T ~ o.i.B.S.5 >Xo g.i.&.( ~ T T ~ ~ ~ ( &.B.qXmX}.t.i.: < # o & 5 y j ",
"T n n K P T T T ~ ( :.G.pXPX>XW.S.j.B..XmXhX%XB.>.] ~ T ~ T T ( >.b.S.] B.| q.i.>.| ~ T T T T T ( :.G.qXkX( =Xa 0 5 : < y n A P ",
"j a c A P T T ~ ~ ] 9.).mXpXE.g.:.| &.9.E.AXpX.Xn.:.] ~ T T ~ ~ o.i.S.B.j ).d g.q.@.~ T T T ~ ~ ( >.E.6XyX5 ).y d 0 9 d n P P P ",
"9 9 c P T T ~ ~ ( | t.OXGX>XB.:.T A c T :.U.xX6X).i.o.~ ~ T T T ( 5.b.S.~ '.j q.t.:.( ~ ~ ~ ~ ~ ] 9.W.6X5Xc j.d j a d n K P P P ",
": y n P P T ~ ~ ~ ] t.OXAX>Xj.T j < : o y T n.pX=XG.5.| ~ T T T ~ @.t.B.B.P j.@.i.9.| ~ T T ~ ~ ] 9.E.>X%X] | c n d j A P P P T ",
"< j A P P T T T ~ ] q..XmX>Xq.A 5 a ] ] K 9 j U.5X'.b.&.( ~ ~ T ~ ( 9.b.S.a OX: g.t.&.( ~ T T ~ ] q.W.>X.Xg.c A B j c K P P T T ",
"a B P P T T T ~ T ] 9.W.pX=X9.B 0 t.%XW.B.t.c j }.OXU.9.| ~ T T T ~ @.i.S.n.| @.t.i.5.] ~ T T ~ | 9.).>XOXg.o K A n A P T T T ~ ",
"A P T P T T T ~ ~ ~ :.S.6X>X>.y P '.5X'.'.OXE.B A .X).b.:.( ~ T T T | 9.n.S.< }.a i.q.@.~ T T T ] q.).5XOXb.& T P B A P T T ~ ( ",
"P T P T T ~ T ~ ~ ~ @.n.=XhXi.5 &.%X'.n.g.B.%XOXy q.'.G.q.| ~ ~ T T ( &.j.G.n.g.A t.t.>.] T T ~ | q.).>XW.j.: ~ P B A P T ~ ~ ( ",
"T P P T T T T ~ T ~ | t.'.6XS.9 9.5XU.o.~ T i.OX'.# W.U.b.&.( T T ~ ~ o.t.G.G.y b.9.t.9.o.~ ~ T | t.'.6X'.i.# ] ~ A A T T T ~ ( ",
"P P T T ~ ~ T T ~ T ( >.U.>X'.y >.qXg.P j : 5 | >Xt.K E.S.q.| T T T ~ ( >.n.U.] W.o i.t.:.] T ~ | t.}.qX.X>.: o.( K A P ~ ~ ( o.",
"T P ~ T T T ~ T T T ( &.n.OX6X( o.hX>.< & & B : :.yXc B.S.i.&.( ~ T ~ ~ @.i.S.S.~ @.t.g.9.| ~ ~ o.i..XyX.Xq.o o.] P K T T ( o.9.",
"T ~ T ~ T ~ T T T ~ ~ | t.).=X>.c yX>.o 0 o n &.: n.W.d B.j.5.] ~ T T ~ ] 5.B.G.j E.j b.i.&.( ( o.i..XyX).5.< o.] K K T ( o.q.U.",
"T T T ~ T T T ~ ~ ~ T ] >.U.%X'.5 pX:.5 B & a :.:.5 5X( b.n.q.| T T T T ( :.j.U.S.&.K g.g.9.| ( | i..XyX).:.y @.] K A T o.9.U.>X",
"~ ~ T T T T ~ ~ T ~ T ~ @.n..X=Xy %Xj.y ~ y 9 o.g.o.| ).c b.i.&.~ T ~ T ~ | t.G.E.o b.| j.i.&.( | g.OXpX).| c &.o.P K ~ &.b.=XkX",
"T T T ~ ~ T T T T T T ~ | t.).%X| b.G.< o.A 9 ~ i.b.& }.B i.g.5.] ~ T T T ] 9.B.E.@.b.5 j.b.5.| | g..XpX'.] K &.@.T P ] t.'.hXmX",
"T T T ~ ~ T T T T ~ ~ T ] 5.E.OXW.( '.# o.T a K q.n.t.o.E.( g.9.o.~ T T T ~ @.g.U.E.B 5.9.b.t.&.| t..XpX}.B | :.&.( P o.B.6XmXxX",
"~ ~ T T T T ~ ~ T T ~ T ( :.S.OXOX0 qX& @.( c n >.b.B.y =X5 t.q.&.( T ~ T ~ ] 9.S.W.B E.< b.j.5.o.t..XhXOXj ~ 5.>.| ~ :.E.pXmX] ",
"T T ~ T T ~ T T ~ T T T ~ @.b.}.%Xa qXy o.] A n | i.S.t.5.t.9.t.>.( P T T T ( :.n.W.E.| T t.n.g.:.q..XkX=X< | ( 5.o.~ 5.'.hXhX0 ",
"T ~ T T T T ~ T T T ~ T ~ | i.).OX~ >XB | | K n ~ q.B.S.# .Xc q.5.| ~ ~ ~ T ~ o.i.U.).: j.y S.b.5.9..XxX=Xo >.P q.@.~ >.}.pX).5.",
"T T ~ ~ ~ ~ T T ~ ~ ~ ~ ~ | q.E.%Xj.n.@.| ] P n P :.n.U.&.U.c 9.5.@.~ T ~ T T ] 9.G.'.q.:.5 S.B.i.q..XkX5X5 9.a t.:.~ &.'.6Xb.b.",
"~ T T T T T T ~ T T T ~ T ] 9.U.%X.X>.t.| | T A P o.i.U.S.P b.>.9.@.~ P T T T ( :.n.'.OX5 @.K G.n.t.}.xX6Xc i.& i.>.~ | U.=Xt.S.",
"T ~ ~ T ~ T T T ~ T ~ T T ] >.U.=X%XA S.| | ~ A K ] q.S.E.d OXd 5.&.( T T ~ T ~ o.g.'.=XK t.: b.S.i.).xXqXP g.& g.9.] ( B..Xb.g.",
"T T T T T T ~ ~ T T T T T ( :.G.>X>X0 n.P | T A A ~ >.n.E.i.G.a :.:.] T T T T T | q.W.>XB.T B | S.g.U.kX%XT t.9 9.t.o.T g.).).] ",
"~ T T ~ T ~ T T T ~ T ~ ~ ~ >.G.>X6X< S.P o.~ B K T @.g.U.G.( 5.&.&.| T T T T ~ ] 9.W.>XqX# &.0 g.j.n.pXOX~ 5.n ( i.&.P >.U.W.9 ",
"~ T T ~ T T ~ T T T ~ T ~ ( >.G.5XyX9 E.c | ~ A K T | t.U.W.9 E.o.:.| T P T T ~ ( 5.E.6XkXA 9.0 o.i.i.6X5X~ ] | c g.>.T o.B.W.n ",
"T T T ~ T ~ T T ~ ~ T ~ ~ ( :.U.>XyXj '.0 | ~ A A T ] 9.G.).>..X: :.o.T P T ~ T ( :.U.qXxX&.5.P a 9.@.OX'.o.P >.0 j.5.~ ~ g.E.g.",
"T ~ T T T ~ T ~ T T T ~ ~ ( >.U.6XpXc '.j ] T B K T ] >.S.'.E.i.9 @.o.T K P T T ~ :.U.qXmX:.&.5.o A B G.U.@.K S.& q.q.| K >.B.S.",
"~ T ~ T T T ~ T T T T ~ T ( >.E.6XhXn E.j ] T B A T ] :.B..X'.T @.| | T K P ~ T ( 5.E.yXZXb.&.B.< d y t.E.>.0 }.0 &.i.&.A | g.S.",
"T T ~ T ~ T T T ~ T ~ ~ ( ] q.).pXkXj U.j ] P B A P ~ &.n..X.X0 i.] | P K P ~ T ( 5.W.hXAXq.9.G.< 9 5 @.B.9.& =XT K j.>.P P 9.n.",
"T ~ T T ~ ~ T T ~ T ~ ( ~ | i..XkXmX0 U.j ( P n A T ( &.b..XOX: B.( ] P A P ~ ~ ] 9.'.kXGX&.W.B.0 c & ~ ).t.9 S.q.9 j.q.] K o.g.",
"T T ~ T T T T ~ T T ~ T ~ o.j.=XZXAX: b.c ] K n A T ( @.b..X%Xd W.( ] P A K T ~ | t.OXmXAXA pXq.: d & K G.B.A @.W.# b.g.&.P ~ 5.",
"~ ~ T T T T T ~ ~ ~ ~ ( ] :.G.pXPXxX: t.P ] K n A T ~ @.b.OX>XP U.( ] T A P P ~ @.j.5XZXZX& yXT j a & B b.'.>.B yXB ] b.q.( P o.",
"T T T ~ T ~ ~ ( ~ ~ ( ( | q.}.mXPX>X0 :.T ] A n K P ( &.B.%X5X( U.| | T A K T ~ &.B.qXZX6X( }.< j 0 < B t.E.j.: ).q.A B.g.&.P ( ",
"T T T T ~ ~ ( ~ ~ ~ ( ] :.B.qXPXPXE.K ] o.( B n A T ( @.B.=X6X:.G.~ @.( A K T ( 5.E.pXZXb.U.j.d d 0 9 B :.n.W.| ] =X< B.n.q.] P ",
"~ ~ T ~ ~ ~ ~ ( ] @.:.9.B.5XPXPXPX9.o.P o.( B c K P ( &.B.%XyX@.S.B @.] P K T ] 9.'.hXmXA 5Xj d a 9 y A o.t.G.E.o %Xo.P G.b.5.~ ",
"T T T ( ~ ~ ( @.>.i.B.}.pXPXPXPX}.T i.a o.~ B n K P ~ @.n.%XyX&.U.a &.] P K T o.g.%XxXkX< .X< j y 0 j A ( :.b.G.~ o.'.& U.G.g.@.",
"T ~ ~ ~ ( | :.g.E.>XxXPXPXPXPXyXg.# i.9 ] P n n K T ( @.b.%XqX9.E.< @.] P K ~ &.B.6XmXyX@.t.d d y a B P T | q.n.S.0 ).( &.W.G.t.",
"~ ~ ~ ( o.9.S.>XAXPXPXPXPXPXyXW.T | >.# T A j n P ~ ~ @.j.%XqXq.S.o @.| P P ( 9.).pXZXB.}.B d a y d A T T ~ &.i.B.g.n ).# S.).S.",
"~ ~ ( o.t.W.hXPXPXPXmXyX>XW.g.| o G.o.o K c d n P T ~ o.g..XqXb.j.5 &.o.T P | g.%XxXmXB .Xd j a y n P T T T ] >.b.S.n q.@.~ .X'.",
"~ ( o.q.).xXPXPXPX.XB.q.&.| T o }.E.T j n a a B P T T | i.}.qXE.>.c :.&.( ~ :.S.yXAXxXd b.j j y a B P T T T ~ o.q.B.S.o E.5 g.%X",
"~ | 9.W.kXPXPXmXB.| A a y o &.yX=Xb.n c d 0 d A T T ~ | i.}.qX).~ P 5.5.| ( q..XZXPXW.n.j c d y j A P P T P T ~ :.g.B.@.T i.y }.",
"| >.U.pXPXPXPXg.A 9 A i.%XpXmXqXU.] : y 0 0 c P T ~ ~ | q.'.yX.Xa P t.q.&.@.n.yXPXPXB S.y c a a c P T P ~ T T ~ ] 5.b.S.d q.P ~ ",
":.B.6XPXPXPX9.a | G.}.W.).U.E.j.&.c # 5 5 y n P P P T ] 9.).yXqXo ] ( g.9.9.}.AXPXyXc >.B c a a B K T P T T T T T o.q.n.S.& g.5 ",
"j.%XPXPXPXS.o b.U.9.o.o.| o.@.T n 5 & & < d A P P T ~ ] 9.).pXmXj &.a n.g.b.qXPXPXq.B.9 B c a j A P P T T T T T T ( &.g.S.q.a 5.",
"}.mXPXPX}.& '.G.~ y : # # & y 9 & o # : y B K T T ~ ~ ] 5.).hXAXK @.& B.B.W.AXPX>X< j.c A d a c P T T T ~ T T T T T ] 5.b.G.B K ",
"hXPXPXyXo .Xj.j & & : < < < & o o o & 9 c K P P P ~ ~ ] 9.}.kXPXo.| # @.U.=XPXPXB.K P T A j d B P P T T ~ T T T T T ~ o.t.S.E.& ",
"PXPXPXj OXg.: # # o o # # # # # & < 0 c A P T P ~ ~ ~ ] q.OXZXPX@.T d ( U.6XPX>X] g.a ( K c j A P P T T T ~ T T T P T ( :.j.G.@.",
"PXPXo.W.B.: & # o o # < 5 9 9 0 a j n K P P P P ~ ~ ~ | g.5XPXPX:.P c n q.>XyXS.5 g.< ] K c c K P T T ~ T ~ ~ T ~ T T T | q.n.E.",
"PXS.i.G.9 & & o # < a j j n n n A A P P P T T ~ T ~ ~ &.n.yXPXmX&.~ ] < T g.OX5.c t.j o.T n B P T T T ~ T T T T T T T T T @.i.G.",
"'.o.'.d : & # : 0 j A K P P P P P P T P P P T ~ ~ ( ] 5.).xXPX>X| 9.:.y # n g.T @.9.P &.] A A P P T T T T T ~ ~ T ~ T T T ( >.n.",
"j }.A : & & : 0 n K K K P P T P P P P T T T ~ ~ ~ ( @.g.>XPXPX.Xc G.i.j 5 < o.j t.q.A 9.@.T K P T T T ~ ~ T T T T T ~ T T ~ @.i.",
"%X~ : : & & 0 j A P K P T P P P P T T T ~ ~ ~ ~ ( | 9.E.xXPXPXB.& %Xt.c 9 o P j 5.G.0 t.>.] P T T ~ T ~ ~ T T T T T T T T T ] 5.",
">.& : & & 9 j K P P T T T T T ~ T T ~ ~ ( ~ ( ( | >.n.6XPXPXyX| :.OX@.a : < ( n | >X& i.q.&.( T ~ T T T T T ~ ~ T ~ T T T T ( &."
};
