/* XPM */
static char *result[] = {
/* columns rows colors chars-per-pixel */
"64 64 255 2 ",
"   c black",
".  c #010101",
"X  c #020202",
"o  c gray1",
"O  c #040404",
"+  c gray2",
"@  c #060606",
"#  c #070707",
"$  c gray3",
"%  c #090909",
"&  c gray4",
"*  c #0B0B0B",
"=  c #0C0C0C",
"-  c gray5",
";  c #0E0E0E",
":  c gray6",
">  c #101010",
",  c #111111",
"<  c gray7",
"1  c #131313",
"2  c gray8",
"3  c #151515",
"4  c #161616",
"5  c gray9",
"6  c #181818",
"7  c #191919",
"8  c gray10",
"9  c #1B1B1B",
"0  c gray11",
"q  c #1D1D1D",
"w  c #1E1E1E",
"e  c gray12",
"r  c #202020",
"t  c gray13",
"y  c #222222",
"u  c gray14",
"i  c #252525",
"p  c gray15",
"a  c #272727",
"s  c #282828",
"d  c gray16",
"f  c #2A2A2A",
"g  c gray17",
"h  c #2C2C2C",
"j  c #2D2D2D",
"k  c gray18",
"l  c #2F2F2F",
"z  c gray19",
"x  c #313131",
"c  c #323232",
"v  c gray20",
"b  c #343434",
"n  c #353535",
"m  c gray21",
"M  c #373737",
"N  c gray22",
"B  c #393939",
"V  c #3A3A3A",
"C  c gray23",
"Z  c #3C3C3C",
"A  c gray24",
"S  c #3E3E3E",
"D  c #3F3F3F",
"F  c gray25",
"G  c #414141",
"H  c gray26",
"J  c #434343",
"K  c #444444",
"L  c gray27",
"P  c #464646",
"I  c gray28",
"U  c #484848",
"Y  c #494949",
"T  c gray29",
"R  c #4B4B4B",
"E  c #4C4C4C",
"W  c gray30",
"Q  c #4E4E4E",
"!  c gray31",
"~  c #505050",
"^  c #515151",
"/  c gray32",
"(  c #535353",
")  c gray33",
"_  c #555555",
"`  c #565656",
"'  c gray34",
"]  c #585858",
"[  c gray35",
"{  c #5A5A5A",
"}  c #5B5B5B",
"|  c gray36",
" . c #5D5D5D",
".. c gray37",
"X. c #5F5F5F",
"o. c #606060",
"O. c gray38",
"+. c #626262",
"@. c gray39",
"#. c #646464",
"$. c #656565",
"%. c gray40",
"&. c #676767",
"*. c #686868",
"=. c DimGray",
"-. c #6A6A6A",
";. c gray42",
":. c #6C6C6C",
">. c #6D6D6D",
",. c gray43",
"<. c #6F6F6F",
"1. c gray44",
"2. c #717171",
"3. c #727272",
"4. c gray45",
"5. c #747474",
"6. c gray46",
"7. c #767676",
"8. c #777777",
"9. c gray47",
"0. c #797979",
"q. c gray48",
"w. c #7B7B7B",
"e. c #7C7C7C",
"r. c gray49",
"t. c #7E7E7E",
"y. c gray50",
"u. c #808080",
"i. c #818181",
"p. c gray51",
"a. c #838383",
"s. c #848484",
"d. c gray52",
"f. c #868686",
"g. c gray53",
"h. c #888888",
"j. c #898989",
"k. c gray54",
"l. c #8B8B8B",
"z. c gray55",
"x. c #8D8D8D",
"c. c #8E8E8E",
"v. c gray56",
"b. c #909090",
"n. c gray57",
"m. c #929292",
"M. c #939393",
"N. c gray58",
"B. c #959595",
"V. c gray59",
"C. c #979797",
"Z. c #989898",
"A. c gray60",
"S. c #9A9A9A",
"D. c #9B9B9B",
"F. c gray61",
"G. c #9D9D9D",
"H. c gray62",
"J. c #9F9F9F",
"K. c #A0A0A0",
"L. c gray63",
"P. c #A2A2A2",
"I. c gray64",
"U. c #A4A4A4",
"Y. c #A5A5A5",
"T. c gray65",
"R. c #A7A7A7",
"E. c gray66",
"W. c #A9A9A9",
"Q. c #AAAAAA",
"!. c gray67",
"~. c #ACACAC",
"^. c gray68",
"/. c #AEAEAE",
"(. c #AFAFAF",
"). c gray69",
"_. c #B1B1B1",
"`. c #B2B2B2",
"'. c gray70",
"]. c #B4B4B4",
"[. c gray71",
"{. c #B6B6B6",
"}. c #B7B7B7",
"|. c gray72",
" X c #B9B9B9",
".X c gray73",
"XX c #BBBBBB",
"oX c #BCBCBC",
"OX c gray74",
"+X c gray",
"@X c gray75",
"#X c #C0C0C0",
"$X c #C1C1C1",
"%X c gray76",
"&X c #C3C3C3",
"*X c gray77",
"=X c #C5C5C5",
"-X c #C6C6C6",
";X c gray78",
":X c #C8C8C8",
">X c gray79",
",X c #CACACA",
"<X c #CBCBCB",
"1X c gray80",
"2X c #CDCDCD",
"3X c #CECECE",
"4X c gray81",
"5X c #D0D0D0",
"6X c gray82",
"7X c #D2D2D2",
"8X c LightGray",
"9X c gray83",
"0X c #D5D5D5",
"qX c gray84",
"wX c #D7D7D7",
"eX c #D8D8D8",
"rX c gray85",
"tX c #DADADA",
"yX c gray86",
"uX c gainsboro",
"iX c #DDDDDD",
"pX c gray87",
"aX c #DFDFDF",
"sX c gray88",
"dX c #E1E1E1",
"fX c #E2E2E2",
"gX c gray89",
"hX c #E4E4E4",
"jX c gray90",
"kX c #E6E6E6",
"lX c #E7E7E7",
"zX c gray91",
"xX c #E9E9E9",
"cX c #EAEAEA",
"vX c gray92",
"bX c #ECECEC",
"nX c gray93",
"mX c #EEEEEE",
"MX c #EFEFEF",
"NX c gray94",
"BX c #F1F1F1",
"VX c gray95",
"CX c #F3F3F3",
"ZX c #F4F4F4",
"AX c gray96",
"SX c #F6F6F6",
"DX c gray97",
"FX c #F8F8F8",
"GX c #F9F9F9",
"HX c gray98",
"JX c #FBFBFB",
"KX c gray99",
"LX c #FDFDFD",
"PX c #FEFEFE",
"IX c white",
/* pixels */
"].].].].].].].].].].].].          < x f 6 = * > 9 l F U ^ #.>XnXiXbXHX].].].].].].].].k         = ' w.c.L..X].].S.A c W { O.]   ",
".X].].].].].].].].].].].              X X $ 4 f I #.0.l.E.0XVXzXxXZX-X].].].].].].].0.          6 O.t.d.B.R.OX].].S.4.$.( g     ",
"P.].].].].].].].].].].@.                $ w v ) r.S.!..X2XiXzXAXMX].].].].].].].].].            C 9.k.x.n.L. X].].].].S.&.      ",
"j. X].].].].].].].].].                : s K ..i.R.+X-X1X5XwXcXDX].].].].].].].].].            ; =.B.G.S.N.H./.OX].].].].Y.      ",
"L.[.].].].].].].].].].              r Z } 0.c.(.1XqX8X4X3X8XAX-X].].].].].].].].              R G.XX}.Q.K.G.~.+X].].].].].      ",
"`.>X].].].].].].].].@.            g ] 6.v.K.`.1XfXfXwX3X,X9XIX].].].].].].].].              k j.5XhXeX*X[.R.~.|.OX].].].@.      ",
".X1X.X].].].].].].].+           i $.g.D.Q._.#XeXnXlXwX<X*X5XAX].].].].].].].@             2 5.%XNXKXNXpX,X XQ.`.+X].].K.        ",
"$X3X;X].].].].].].].            ) l.K.~.'.}.;XpXVXxXqX;XOX-XsX].].].].].K.              + | '.sXFXLXDXmXuX%XL.j.*.Q M           ",
"-X6XyX].].].].].].].          ; :.A.W._. X+X1XlXHXnXrX,XoXOX2X.X].].v.%               X E J.9XkXvXbXmXCXMX7XC.] p               ",
"3XeXzX].].].].].].].          5 6.I./.{.XX&X9XBXLXMXpX4X XH...3                     , _ v.@X7X9X8X0XyXzXPX0X$.t                 ",
"qXsXBX].].].].].].].5         < 1.P.^. X$X1XhXKXKXMXgX0X{.:.1                   X b ,.N./.+X$X$X+X@X@X&X1X) O                   ",
"pXlXBX].].].].].].].-.        % ] B.!.#X4XsXZXFXVXbXcXkX].M                 s e.n.x.C.I.(.{.}.[.(.Q.A.O.                        ",
"lXAXZX].].].].].].].Y.        X Z 7.J.$X0XsXhXdXpXdXnXPX0.            % Y /.mXaX}.F.Z.F.Y.^.).).T.k.m               O 9 h V R ) ",
"xXGXlX].].].].].].].].$       % j _ e.F./.|.+X#X$X>XrXG.          + I J.mXLXjX;XQ.N.z.M.J.W.(._.N.2               7 Z  .6.b.'.%X",
"bXmX-X].].].].].].].].>.      9 c Y +.q.l.M.S.K.G.B.@.          e ;.<XGXZXdX1X].D.g.t.p.B.U.].T.                z [ y.K.].2XxXDX",
"MX].].].].].].].].].].^.J : i m D W | -.9.t.y.u.;.v           t p.tXLXNXiX2X+XW.S.m.h.l.G.K...                v >.v.!.;XtXmXGXIX",
"].].].].].v.) A A | x.[./.=.) ( / { %.3.i.l.z.h.Q           X 0.gXIXmXyX1X=XOX;X8XtX&X|.4.                  l ,.B.~.OX0XvXFXHXLX",
"].].].].].T       @ a ! M.OX].Y.m.J./.OXaXxX-XY.g           W ,XFXcXeX,X;X>XlXxX].].].v.                  k 3.Z.E.}.-XaXSXKXGXGX",
"].].].].].&         4 l | B.OX].].].].].].].].].u.        - x.wXyX4X-X=X3XMX-X].].].].                  B 2.A.!._.+X6XvXKXJXSXDX",
"].].].].].          5 B ) e.K.OX].].].].].].].].^.        G B.[.OXOX#X3XNX].].].].].^               + K w.A.!._.|.-XiXCXPXHXZXZX",
"].].].].].          7 D [ 5.m.[.].].].].].].].].].#     4 ' j.H.Y._.3XVX].].].].].].              5 ' i.G.!._.|.$X6XlXHXIXHXAXcX",
"].].].].].          u ! ;.e.V.!.OX].].].].].].].].<.  ; D X.q.N.!.4XDX].].].].].].              a @.l.P./.]..X&X3XpXBXLXIXKXSXeX",
"].].].].].          Y e.V.S.L.).&X].].].].].].].].]. .V | 6.M.;XBX8X].].].].].].F             u *.m.U.(..X@X;X6XyXzXDXLXIXPXSX{.",
"].].].].].          ..E.%X X/.[.2X].].].].].].].].].].].].].].].].].].].].].].v.            8 %.Z./.}.+X=X,X7XtXgXmXDXJXPXPXNXN.",
"].].].].].        # $.4XlX8X#X#XtX].].].].].].].].].].].].].].].].].].].].].].            2 X.B./.XX%X=X-X1X8XwXsXzXmXCXAXCXiXy.",
"].].].].].J       1 +.2XIXcX6X:XaX].].].].].].].].].].].].].].].].].].].].].k           + [ j.W.[.`.[.}.]. X+X;X7XyXaXhXjXtX{.;.",
"].].].].].S.      > Y B.sXNXpX6XkX].].].].].].].].].].].].].].].].].].].].K.            Q d.L.!.Q.I.L.G.A.L.E.).XX-X1X7X3XXXx.} ",
"].].].].].]. .% ; 9 v #.D.5XsXaXAX].].].].].].].].].].].].].].].].].].].].b           B r.L.(./.T.F.B.l.f.h.n.F.Y.]..XXX[.S.<.) ",
"].].].].].].].%.d h J | 2.A.$XgXPX].].].].].].].].].].].].].].].].].].].].          5 3.G.[.OX{.~.J.n.a.e.q.p.l.V.P.Y.K.Z.0./ K ",
"].].].].].].].].Y.] _ >.8.G.-XbXxX].].].].].].].].].].].].].].].].].].].].          x C.#X7X8X,XOX^.C.g.q.3.8.u.g.x.n.h.4.Q b B ",
"].].].].].].].].].].].^.W.2X8X].].].].].].].].].].].].].].].].].].].].].].          G ~.pXBXbXgXqX*XR.M.t.5.2.w.w.w.0.&.T i 2 t ",
"].].].].].].].].].].].].].].].].].].].].].].].].].].].].].].].].].].].].].x         Z `.NXKXZXnXkXrX@XY.j.e.5.7.3.#.{ H q X   1 ",
"].].].].].].].].].].].].].].].].].].].].].].].].].].].].].].].].].].].].].u.        s ~.DXKXCXNXnXkXeX.XQ.F.x.j.y...B 5       % ",
"].].].].].].].].].].].].].].].].].].].].].].].].].].].].].].].].].].].].].^.        < K.SXCXnXvXbXVXDXsX2X%X X/.!.=.0         @ ",
"].].].].].].].].].].].].].].].].].].].].].].].].].].].].].].].].].].].].].].          G.MXvXhXaXdXvXAX].].].].].].9.          , ",
"].].].].].].].].].].].].].].].].].].].].].].].].].].].].].].].].].].].].].].          f.rXwX,X%XXXXX*X+X].].].].K.|           g ",
"].].].].].].].].].].].].].].].].].].].].].].].].].].].].].].].].].].].].].].          | _.`.W.C.f.1.] R Q / ^ J a           @ :.",
"].].].].].].].].].].].].].].].].].].].].].].].].].].].].].].].].].].].].].K.          F b.v.s.<.[ K f 8 % + .               Y }.",
"].].].].].].].].].].].].].].].].].].].].].].].].].].].].].].].].].].].].].K           g 4.r.,.} J n i 5 =                 b ].SX",
"].].].].].].].].].].].].].].].].].].].].].].].].].].].].].].].].v.-.*.-.I             7 ( &.O.' L A N k s e 6 @       - h >.rXKX",
"].].].].].].].].].].].].].].].].].].].].].].].].].].].].].].].0.      +               = A  .&.$.|  .@.&.:.5.#.D r 7 8 b ^ s.OX0X",
"].].].].].].].].].].].].].].].].].].].].].].].].].].].].].].].j                         u ' r.v.C.I.`.;XrXnXjXT.#.Q S / 6.n.R.I.",
"oX].].].].].].].].].].].].].].].].].].].].].].].].].].].].].].        q i t o           e ' z.@XiXmXAXFXFXZXqXF.@.I U -.F.K.A.e.",
"K.].].].].].].].].].].].].].k       - b s.oX].].].].].].].].].        l ( %.^ 7         t o.V.7XHXLXAXvXsX3XE.5.F i l [ T.).c...",
"d.T.].].].].].].].].].].].              + 9 ( K..X].].].].].].2       A u.H.N.X.a o   & f @.C.3XbXbXfXqX<X[.v...s ; < j @.m.4.F ",
"8.r. X].].].].].].].].].v.                % e R u.OX].].].].].|       v V.XXW.9.G ; o < l %.E.wXzXhXrX5X>XXXW.-.s     O a _ Q y ",
"<.e.l.OX].].].].].].].].f.          + 0 g C I _ 7.^.].].].].].S.      6 ;.H.m.%.v : O 7 S >.+XbXbXdXwXeXsXCX8Xc.B       o s f > ",
">.;.2.j.OX].].].].].].].V.          Q i.v.V.M.m.P.}.OX].].].].].:       i } ( Z t + . 6 F d.sXJXNXfXtXjXHX].].].S.        $ - . ",
"w.=.o.` 9.oX].].].].].].^.        * ~ !.CXVXyX<X#X3X3X].].].].].,         & : * O     , C t.uXDXcXuX0XbX-X].].].].          @ @ ",
"B.q.+.Q C ..G..X].].].].].T       # z >.#XVXmXpX5XpXkX].].].].v.                      3 z :.~.1X,X@X}.=XOX].].v.%           ; 7 ",
"].B.8.{ S h z } U..X].].].^.S O     9 I b.5XlXfXwXjXsX].].].0.                      @ r V o.j.S.C.k.6.] i &               ; S P ",
"9XXXG.e.` V d u K w.oX].].].^.! o   @ k <.+XzXzXwXtX9X].v.3                       , e V _ -.r.e.<.' V 4                 * R A.K.",
"cXpX>XQ.a.o.W F D ) d.oX].].].].T     , ! `.GXzX(.t.l                         : a D E X.4.6.8.=./ M 7                 < Y b.0XCX",
"DXSXmXfX2XW.h.2.=.-.4.c.OX].].].^.      2 i.,Xc.Q 0                       = a D ` 1.u.l.c.i.0.O.G a =             # c o.B.&XxXIX",
"PXIXPXIXPXZXeX}.D.f.q.5.z.oX].].v.          & $                       > b ! ;.h.A.W.`./.T.B.d.-.I z 7 % o + > t Z =.A.@XqXgXMXFX",
"FXAXCXBXNXbXCXNX>XK.y.&.E N x i                                   > n | q.n.R.XX&X<X2X&X[.Y.x.3.[ Y K G W } -.a.E.6XxXNXBXNXVXZX",
"vXxXgXyX1X+X&XkXlX_.p.[ b :                                   9 D $.p.D.^.oX<X0XtXiXyX4X@X/.n.q.1.1.6.r.z.K.[.8XMXIXKXSXCXZXGXMX",
"uXyXwX>X'.J.l.H.*XC.$.D q O                             4 b / <.l.K./.XX>XqXdXxXxXlXfX8X$X!.m.i.i.h.B.L.'.,XpXVXDXmXjXsXfXmXIX+X",
"9XqX0X:XJ.@.n M I b u 4 O                         o a Y =.d.B.K.).}.*X9XdXbXmXbXkXsXrX-X'.I.M.f.d.m.R.[.>XsXcXkXtX3X-X$X.X|.Z.5 ",
"uXgXjX+XI                     o $ O             > F :.j.A.Y.^.`.+X>XyXbXBXbXfXyX5X:X%X`.F.n.h.y.i.v.W.XX,X0X8X>X@X[.!.F.t.P     ",
"HXIX).e                 O : 4 r d a w =       < A 1.V.U.!.`.|.OX2XjXCXmXaX4X#X[.~.Y.Y.S.f.i.w.5.6.s.G.^.|.@X+X|._.T.Z.k.P       ",
"tX-.                  2 p n J Q ` ] ` L u 1 e B o.l.T.(._.{.&X9XxXZXlX6X@X^.F.b.f.s.g.s.8.3.>.=.1.t.b.K.(.{.[.'.`.`.].P.<       ",
"k                 2 l U X.1.r.a.d.h.f.q...H L ] 7.Z./.`.}.=XrXMXBXaX,X}.T.M.u.2.&.$.;.1.;.=.%.$.>.t.b.J./.}..X+X8XAX-X].        ",
"              3 m ' 1.s.N.K.Y.T.!./.^.I.b.7.=.2.s.J._..X:XyXBXmXeX-X}.T.N.h.e.>.X./ / } } o.+.%.6.g.V.E..X&X2XjXCX].].].q       "
};
