/* XPM */
static char *result[] = {
/* columns rows colors chars-per-pixel */
"64 64 199 2 ",
"   c #040404",
".  c #0C0C0C",
"X  c #0B0F15",
"o  c #0C1117",
"O  c #0E131A",
"+  c #141414",
"@  c #1C1C1C",
"#  c #12161C",
"$  c #141A21",
"%  c #152334",
"&  c #1A2737",
"*  c #192738",
"=  c #1C2838",
"-  c #242424",
";  c #2B2B2B",
":  c #23272D",
">  c #242B34",
",  c #2A2E33",
"<  c #282F39",
"1  c #2D3239",
"2  c #343434",
"3  c #31373F",
"4  c #3C3C3C",
"5  c #1C2E45",
"6  c #1F3047",
"7  c #23354A",
"8  c #2D3949",
"9  c #2A3646",
"0  c #343C46",
"q  c #253A55",
"w  c #2B3E54",
"e  c #263C5A",
"r  c #293F5B",
"t  c #233650",
"y  c #3C434B",
"u  c #2B415E",
"i  c #34465D",
"p  c #3B495B",
"a  c #364457",
"s  c #2B4362",
"d  c #2D4668",
"f  c #2D496C",
"g  c #314B6C",
"h  c #304766",
"j  c #2F4C72",
"k  c #304E74",
"l  c #304F78",
"z  c #335076",
"x  c #3B5474",
"c  c #32527C",
"v  c #395479",
"b  c #3D597C",
"n  c #454545",
"m  c #4C4C4C",
"M  c #43484F",
"N  c #434951",
"B  c #4C535D",
"V  c #545454",
"C  c #55595F",
"Z  c #5C5C5C",
"A  c #455365",
"S  c #535A63",
"D  c #545C67",
"F  c #445974",
"G  c #4A5C74",
"H  c #465D7C",
"J  c #485E7A",
"K  c #5D626A",
"L  c #4E617A",
"P  c #4E6076",
"I  c #5D6978",
"U  c #55657B",
"Y  c #646464",
"T  c #6C6C6C",
"R  c #63676D",
"E  c #656A71",
"W  c #686C72",
"Q  c #6E767F",
"!  c #747474",
"~  c #7B7B7B",
"^  c #74787E",
"/  c #355682",
"(  c #365985",
")  c #3A5A83",
"_  c #375B88",
"`  c #395D8C",
"'  c #3A5F90",
"]  c #3F618D",
"[  c #3C6294",
"{  c #3E6699",
"}  c #3F689C",
"|  c #475F80",
" . c #41628D",
".. c #4B678B",
"X. c #4B668A",
"o. c #536C8C",
"O. c #556A85",
"+. c #416696",
"@. c #4B6C96",
"#. c #41699D",
"$. c #496E9E",
"%. c #536E92",
"&. c #5A7395",
"*. c #59769A",
"=. c #5B7699",
"-. c #637387",
";. c #737D8B",
":. c #677992",
">. c #6D7E94",
",. c #637B9A",
"<. c #426DA3",
"1. c #446FA8",
"2. c #496FA0",
"3. c #4A70A2",
"4. c #4672AB",
"5. c #4974AB",
"6. c #4E79AF",
"7. c #4670A4",
"8. c #5376A4",
"9. c #5279AC",
"0. c #5C7EAA",
"q. c #5A7AA4",
"w. c #4775B0",
"e. c #4976B2",
"r. c #4A79B6",
"t. c #4C7DBB",
"y. c #547FB6",
"u. c #517EB9",
"i. c #637FA4",
"p. c #798088",
"a. c #6D809A",
"s. c #73849A",
"d. c #5C80AE",
"f. c #4F80BF",
"g. c #5D82B2",
"h. c #5481BC",
"j. c #5B85BB",
"k. c #6681A5",
"l. c #758BA6",
"z. c #6589B8",
"x. c #718EB4",
"c. c #7895BB",
"v. c #4F81C2",
"b. c #5183C6",
"n. c #5D89C3",
"m. c #5286CA",
"M. c #5489CE",
"N. c #5A8DCE",
"B. c #5887C4",
"V. c #558BD1",
"C. c #5B8ED0",
"Z. c #628EC7",
"A. c #6A91C2",
"S. c #6591CB",
"D. c #6C96CC",
"F. c #6F98CE",
"G. c #759BCB",
"H. c #7B9ECB",
"J. c #7798C2",
"K. c #6F9AD2",
"L. c #6393D1",
"P. c #719CD4",
"I. c #7A9FD0",
"U. c #7EA4D4",
"Y. c #848484",
"T. c #8B8B8B",
"R. c #939393",
"E. c #9C9C9C",
"W. c #858C96",
"Q. c #8194AD",
"!. c #939AA2",
"~. c #8599B5",
"^. c #9DA2A9",
"/. c #8FA0B5",
"(. c #96A2B2",
"). c #9CABBE",
"_. c #99A6B7",
"`. c #A3A3A3",
"'. c #AAAAAA",
"]. c #ABB2BB",
"[. c #B3B3B3",
"{. c #BCBCBC",
"}. c #819EC4",
"|. c #88A5CA",
" X c #97ABC5",
".X c #96ABC7",
"XX c #9DB1CB",
"oX c #8FACD2",
"OX c #90ADD1",
"+X c #A1B2CA",
"@X c #B9BEC5",
"#X c #B7BDC5",
"$X c #A4B8D2",
"%X c #BCC2CC",
"&X c #C5C5C5",
"*X c #CCCCCC",
"=X c #D3D3D3",
"-X c #DADADA",
";X c #E5E5E5",
/* pixels */
"c c c c / / _ ` q.&X{.E.Y.! m n ; @ 4 ! ! T.Y.n   2 m Z ! T.E.{.&XH.B.v.m.m.m.m.m.m.M.M.M.V.V.V.M.M.m.m.b.9.X.J y ; +   + - - - ",
"c c c c ( _ ' #.).{.`.Y.Y n - ~ &X`.T.! Y Z V Y T ;.R.'.E.2 4 Z ~ R.[.&XoXN.M.M.V.V.V.V.V.V.V.V.V.V.V.m.B.h.$.X.G 2 +     . . + ",
"c c ( ( ` [ { 2.(.{.E.! V - '.`.R.T V n 2 ; @ @ + @ @ - ; n ! T.! n Y Y.`.{.$XP.C.V.V.V.V.V.V.V.V.V.V.M.m.B.0.%.G y - @ .       ",
"/ / _ ` [ #.<.4.x.`.R.! m @ '.! Y V m 4 ; > k f +.+.w a @ .   + 4 ! R.- Z Y.`.{.$XK.C.V.V.V.V.V.V.V.M.N.Z.z.i.O.P N 2 @ + .   . ",
"( _ ' [ <.<.4.r.z.E.~ Y 2 2 `.4 @ @ + - +.5.b.m.V.M.V.m.m.b.2.0 @   $ Z '.- Y T.`.{.%XG.L.N.N.N.N.N.S.S.A.z.a.>.E K n ; - @ @ @ ",
"_ ' [ #.1.e.t.v.h.s.T m 2 + {.4 + ; 4 y 2.b.V.V.V.V.V.V.V.V.V.V.B.G 2 . @ V Z n ! T.'.&X#XoXH.G.G.G.G.}.~.Q.W.~ T T V n ; 2 ; ; ",
"[ { <.4.r.t.v.m.b.j.Q Z 4 + V `.  m T ~ l.j.M.M.M.M.M.V.M.m.M.M.M.M.y.n 2 . 2 T.  Y T.`.[.{.[. X X].].'.`.!.E.T.Y.! Z V n 4 4 2 ",
"} <.4.r.t.v.v.m.M.M.z.Y n 2 + ~ Y 2 ! R.`. XD.M.M.M.m.m.m.m.m.m.m.m.m.B.D n - + T @ m ! T.^.`.[.[.[.[.[.[.'.`.R.R.Y.! Y Y V n 4 ",
"<.e.t.t.v.b.M.M.M.V.M.g.K 4 @ @ ~ Y 2 ! E.[.&XOXD.b.b.b.v.v.v.b.b.b.v.b.b.-.m 2 . m 2 ; Y ~ T.E.`.`.`.`.E.`.`.E.T.Y.! T Z V m m ",
"r.t.t.b.m.M.M.V.V.V.V.N.&.V 2 @ + V &X. Z Y.R.'.&X+XA.u.t.t.t.t.t.t.t.t.v.u.a.Y 4 . n n @ m T ~ T.T.T.R.E.R.R.T.R.T.Y.^ ! Y Z V ",
"t.v.b.m.M.M.V.V.V.V.V.V.M.h.S 4 @   4 E.Y 4 Y ~ T.`.[.%Xx.r.5.5.4.e.e.r.r.t.k.Y.K 4 . V n + 4 m Y T Y.Y.Y.~ ! ! ! ! ! ~ ~ ! Y Z ",
"H.S.M.M.M.V.V.V.V.V.V.V.N.M.h.B 4 - . - V R.n n V T Y.E.[.&X Xq.2.<.<.1.4.5.g.!.~ V 4 . n ; . ; 2 V Y ! T Y Y Z V Y Y Y ! ! ! Y ",
"[.&X&X%XU.P.L.M.V.V.V.V.M.V.m.y.L 4 ; . + 2 ! `.~ + n Z ! T.`.[.#X~.i.2.2.9.x.].E.~ V 4   ! 2   + - 2 n V V n 4 4 4 4 n V Z Y ! ",
"Y.T.E.'.{.&X$XU.P.C.V.V.N.V.V.m.y.L 4 ; +   ; m T E.'.T - m Y ~ R.[.&X&X).).@X&X[.E.Y.Y ; Z Y.m ; @   ; n 4 4 ; @ + - . @ 4 n V ",
"4 C Y ~ R.R.'.{.&XOXU.C.N.V.N.M.h.8.L 2 - . . @ 2 n Z ~ '.'.; 4 C ! T.'.'.[.'.'.`.E.~ Y 4 2 `.T.~ Y 4   - -   V *X;X-X-X&X[.n . ",
"E.~ + n V T T.E.`.[.{.XX|.D.A.Z.Z.g.&.C n @   + @ - 2 n V Z ~ `.E.. V Y ~ T.R.R.T.~ T V 2 V {.'.`.R.T 2     Z &X=X{.[.R.E.`.'.&X",
"n T R.`.; 4 V T Y.R.'.[.[.].|.}.c.c.s.p.T n @   @ ; 2 2 2 2 2 4 Y R.'.@ n V T Y ! Y V n - =X*X[.[.'.Y.V ; - `.=X'.`.E.Y.T Y Y ! ",
"+ - 2 V ! E.+ 4 Z ! T.R.`.[.{.{.[.[.[.`.E.~ V 4 @ . , 4 4 2 - @ @ ; n ! E.Z @ 4 n n 2   *X-X[.'.E.R.! m ; - Y.&XY.~ T.Y.T V n n ",
"@     @ - n ! Y.. n Y ! Y.R.E.'.'.[.[.[.[.E.T.Y.Y 4 @ + ; 4 2 - . . . - n Y T.R.T.`.-X;X&X[.E.R.T.! Y n ; - m -X~ V V ! Y n 4 - ",
"0 - @ + . . 2 Y `.; - m Y ~ Y.R.E.`.E.E.R.R.T.T.T.! T m ; . @ - +       + - n V ~ `.`.`.E.R.Y.! T Z n ; + . - E.T.4 ; 4 V V 2 - ",
"3.A 2 ; - @ . ; m E.4 - n Z ! ~ Y.Y.T.Y.Y.~ ! ! T ~ Y.~ T V n @ + .   .   . @ ; V ! Y.Y.Y.~ T Y V n 2 @ . .   2 *Xn . . ; 4 4 @ ",
"1.$.L n 4 ; .   + n ~ T   4 m Y T Y Y Z Y V V m m V Z T ~ Y.! T n @ .   + .   + 4 V ! ! T Y Z m n 2 - . + - @ . Y ~ . @ + + , w ",
"#.$.%.K V n 2 @   @ n ! [.2 @ 4 4 n n 4 + - Z `.{.T.2 - V T ~ Y.Y.! n @ . @ + . ; n Z Y Y Z n 0 3 8 e t : 2 4 ; . *X2 @ 2 ; 6 d ",
"] [ &.>.~ Y n ; @ . ; m Y.[.=X{.E.[.;X-X*X[.E.T.T.T.R.{.[.. m T T.T.Y.Y 4 ; -   @ ; V Z Z n 4 i b [ ' ( c x V n ; ; *X+ 2 n i j ",
"_ ] ,.^.E.Y.Y n - . 2 n Y T.`.[.{.'.E.R.;.T Z m 4 4 2 4 Y E.R.- T T.R.T.Y.Z n @   + 4 n n 2 - h [ #.{ ` _ c x K m ; m ! - m C z ",
"( +.Q.&X[.R.~ V - . 4 V Y ~ T.T.Y.! Y Z m 2 ; @ +         @ m '.- V Y.R.R.T.T m 2 + . - @ + $ / [ { [ ` ( / c c E V @ R.@ n Y x ",
"] a.&X{.'.`.T.T 4   2 Y ! Y.~ T Z m 4 2 - 7 c #.4.4.+. .p ; . @ V Y.; T T.R.Y.! Z 4 +     . 9 b [ [ _ _ ( c c c z ^ V   '.+ Z I ",
"*.%X[.'.R.R.Y.~ V ; @ V ~ ~ T K m 2 > g [ <.<.4.4.4.1.2.#.` M 2 + ; `.- m ! T.Y.Y m n 2 ; ; 0 x ` _ _ ( / c c l c c ~ V ; m 4 ! ",
"@X{.`.R.Y.! ! Y V ;   4 Z Y V n ; w c ] [ [ { } <.<.<.} { [ ` b m - @ ! Y 4 Y ! ! Z Z n 4 2 m G ) ( / c c c c c l l b ~ 4 R.  Z ",
"{.'.R.Y.T Y V V V 2 . + 2 n ; ; s c ( _ _ ` [ [ [ [ { [ [ ' _ ( b S 2   4 ! @ n Z Y V m 4 n m V b c / c c c l l c l l L ! + `.; ",
"`.R.~ Z m 4 2 2 2 - +   . + . X c / c ( ( ( ( _ ` ` ' ' ` _ ( ( c c G n @ - Y.; , V V V n n m V D c c c c c l c l c c c ;.Z - 2 ",
"R.! Y n ; n E.'.R.Y @   . + @ 9 c c c c c / / / ( _ ( ( ( / ( c c c c G V ; @ T m - m m m m V Y T v l c l c l l c l c c c T.n T.",
"~ T n   {.*X[.`.T.E.=X4   - 4 B / c c c c c c c c / / c c / c c c c l c J V ; . m Y   ; ; 2 n V Y E c l l l c l c c c c c ) Y.@ ",
"! n . =X{.`.Y.! Y V Y ;X2 @ m E ) / c c l c c c c c c c c c c c c c c c c U Z 2   0 T - . - ; 4 m Y x c c l z c l c / / ( ( &.Y ",
"m @ =X'.R.! Y V 2 - @ n ;X@ 4 T X./ c c c l z c c c l c c c c c c c c c c c -.Z 2   4 R.4 .   - 4 V E c c l c c c / / ( ` ` [ E.",
"4 {.[.T.T Y n 2 @ . +   m !.+ Z T.X.c c l c c l c c c c c c c c c c / c / c b T.Z 2   n R.n -   @ 4 D F z c c c c / ( ` [ [ { @.",
"Y {.Y.Y C 4 2 - O + 2 2 @ Y 4 n Y.[.&.c c c l l l c c z c c / / / / ( ( ( _ / >.Y.V 2   V Y 2 + . - V Y c c c c / ( ` [ } <.1.1.",
"-XT.T m 2 1 b 1.t.5.U V n + ~   Y E.{.&X{.(.(.(.,.o.c c c c / ( _ _ ` ` ` ' ` ` '.Y.Z ; . E.Z 4 @ . 2 Z F c c c / _ ' } <.4.w.e.",
"E.T V 2 < 4.m.V.M.m.y.=.Y n   T 2 ! T.E.R.E.R.E.E.`.{.(.) ( _ _ [ [ { { } +.+.[ (.`.Y.V @ E.R.T n @ . 2 C c c c / ` [ #.1.e.t.t.",
"Y.V 4 - { V.V.V.m.v.v.y.p.Y 2 . T 4 V Z Y Y m n n V ! T.[.Q.[ { } #.<.1.1.1.1.<.).'.~ V - T.[.T.Z 4 . - n v c c / ` [ <.4.t.t.v.",
"Z 4 ; c m.V.M.M.m.v.t.e.8.Y.Z @ 2 {.Z - n '.{.&X{.'.m n ! E.&X3.1.4.e.e.r.r.e.r.XX`.~ m @ -X&X`.T.Y ;   2 A l c / ` [ <.4.t.v.v.",
"n ; i b.M.V.M.m.v.t.t.1.#.s.! 2   Z '.[.[.T.~ T C V Z R.V V Y.[.J.t.t.t.h.t.t.A.&XE.T n 4 -X{.[.'.~ m + @ n c / / _ ' <.4.t.v.m.",
"2 > b.V.V.M.m.b.v.r.4.<.[ +.Y.V + 4 T ~ T Y m 4 - + + + n {.. ! !.&XH.m.b.M.G.&X'.T.V ; &X&X'.`.E.R.T 4   ; x c / _ ' } 1.r.t.v.",
"> 4.V.V.V.m.m.v.t.e.<.{ [ ( ;.Y - - Z T Y n 4 - & & @ ; @ @ Y V Z Y.`.{.&X%X&X'.T.! n m &X`.R.T.T.Y.~ V - + p c / / ` [ <.w.t.v.",
"[ V.V.V.m.m.v.t.r.1.} [ ` / O.T ; @ V V m 2 , u j c _ ) N 2 . ; T.- Z ~ T.`.E.T.! m ; [.`.Y.Y.~ ! ~ ! Z , . 0 l c / _ ' } 1.r.v.",
"V.V.V.V.m.m.v.r.1.<.[ ` ( / b R 4 . 2 m 2 9 g c / ( [ { <.@.n -   n ~ 2 V Y ! Y V 2 ! `.Y.~ ! T T Y Z Y n + , l c / ( ` [ <.4.t.",
"V.V.V.m.b.v.t.4.<.} ' _ / c c J 2   ; 2 1 d c c / ( ` [ <.w.5.S 2 + @ Z ; 2 4 n 2   E.Y.Y Z Z Y Z V V V m - . g c / / _ ' } 1.r.",
"V.V.m.m.v.t.r.1.} [ _ / / c c c a % : 8 d z / / ( ( ` [ <.1.e.t.&.V 2   . - .   . ~ Y.m 4 2 2 n n n n 4 n ;   s c l / ( ` [ <.w.",
"V.V.m.m.t.r.4.<.[ ` ( / c c c / / j s f / _ _ ( ( ( ` ` { #.4.e.r.,.! Z 4 + R.{.[.&X{.V +     . - ; - ; ; ; X u c c c ( _ ' } 1.",
"m.m.b.v.t.e.<.[ ' ( ( c c / / ( _ _ c ` [ [ ' ` _ _ _ ` [ [ #.1.5.9.[.R.T - =X=X[.`.-X'.- + ; - . . + @ @ - O s l c c b ( ` [ <.",
"m.m.v.t.e.<.{ [ _ / c / / / ( _ ' [ } #.#.#.{ [ ` ` ` ( ` ' [ { #.2.@XE.T . -X'.T.T ! '.'.+ - 2 ; +   + @ @ # r l z c c / _ ' } ",
"m.v.t.e.1.} [ ` ( / / c / ( ` ' } <.1.4.4.4.<.<.[ ' _ _ _ _ ` ` ' @.&XR.m -XE.~ V 4 ; 4 Y.`.. , 4 , @   . # % 7 k l c c / ( ` [ ",
"m.t.t.1.<.[ ` ( / / / / / ` [ { <.4.r.r.t.r.w.1.#.[ _ _ ( / ( ( ` @.[.! ; '.T m ; + . . + Z ~   ; 2 - . . % % 7 h z c c c / _ ' ",
"v.t.4.<.{ ' _ ( c c / / _ ' { <.4.t.t.v.t.t.t.w.1.} [ _ ( / / / / (.R.V &XY 4 @ h z 1 4 4 + T m + ; - +   % % 7 g l l c c / ( ` ",
"t.w.1.} ' _ ( c / c / _ ' { <.4.r.t.v.m.m.v.t.t.4.#.{ ` ( / / /  .[.! T.~ 2 q ` [ { { ..T V @ [.@ + + + X % 6 e u l l c c / / _ ",
"w.1.<.' ` ( / / / / _ ' [ <.4.r.t.m.m.m.M.b.m.t.r.4.} [ _ ( / / Q.!.m [.0 * [ [ [ [ [ { =.~ V 4 Y   + .   = e e r h l l c c / _ ",
"1.<.' ` _ / / / / _ ` [ #.1.r.t.v.m.V.m.V.m.m.t.t.4.<.[ ' _ ( ] {.~ `.Z + { { +.[ [ [ [ [ (.Y.; E.# . . o 7 e t s d j l c c c ( ",
"<.{ ' _ / / / / _ ` [ } 4.r.t.v.b.m.V.V.V.V.m.m.t.r.4.<.[ ' ` _.E.n R.- ) 1.1.<.<.} } [ [ @.`.Z [.;     O e j s f s j j c c c ( ",
"} ' _ _ / / / _ ` [ #.1.r.t.v.b.V.V.V.V.V.M.m.m.v.t.4.1.#.{ @.{.~ T.V   w.e.e.e.1.1.#.} [ [ {.! Y.m     5 f j j j f f j l c c ( ",
"' ` / / / / _ ' [ } 1.r.r.v.b.M.V.V.V.V.V.V.V.m.m.v.t.e.<.<.~.`.Z '.- ) t.t.t.t.r.r.1.#.#.' &X~ m Z . . s j c l j l l j l c c / ",
"' _ / / / _ ' [ } 1.w.r.v.m.m.m.V.V.V.V.V.V.V.M.m.v.f.t.r.r.&XT.$ Y   v.v.m.v.v.t.t.r.1.<.[ Q.T.@ Y . + f c c l c l c l l l c / ",
"_ / / / _ ' ' } 1.w.t.v.m.m.M.M.V.V.V.V.V.V.V.m.m.m.v.t.t.J.'.Z &X; w m.m.m.m.m.m.t.t.w.1.@.q.E.. T   9 c c c c z c l l c c c / ",
"( / ( _ ' [ } 1.w.t.t.m.m.M.M.V.V.V.V.V.V.V.V.V.V.m.m.b.B.&XR.n Y.+ v.m.m.m.V.m.m.m.t.t.4.<.+.`.; ~   a c c c c c c l c c c c / ",
"/ _ _ ' [ <.1.w.t.v.m.M.M.V.V.V.V.V.V.V.V.V.V.V.V.V.M.M.G.[.~ T m . m.V.V.V.V.V.M.m.v.t.e.<.+.{.V T.. p / c / c c c c c c c c / "
};
